<?xml version="1.0" encoding="UTF-8"?>
<!DOCTYPE svg PUBLIC "-//W3C//DTD SVG 1.1//EN" "http://www.w3.org/Graphics/SVG/1.1/DTD/svg11.dtd">
<svg xmlns="http://www.w3.org/2000/svg">
	<symbol id="about-icon1" viewBox="0 0 56 64">
		<path
			d="M10 38H8V0h7v2h-5v36zM56 64H20v-2h34V9.4L46.6 2H26V0h21.4L56 8.6V64zM18 64H0V50h6v2H2v10h14V52H8v-2h10v14z" />
		<path
			d="M16 51h-2v-4c0-2.8-2.2-5-5-5s-5 2.2-5 5v4H2v-4c0-3.9 3.1-7 7-7s7 3.1 7 7v4zM24 18.4l-5-5-5 5V0h10v18.4zm-5-7.8l3 3V2h-6v11.6l3-3zM50 52H30v2h20v-2zM46 56H20v2h26v-2zM36 48h-2v2h2v-2zM32 48h-2v2h2v-2zM50 48H38v2h12v-2zM50 56h-2v2h2v-2zM55 10h-9V1h2v7h7v2zM30 32H14v2h16v-2zM50 28H14v2h36v-2zM50 24H14v2h36v-2zM50 14H38v2h12v-2zM14 56h-2v2h2v-2z" />
	</symbol>
	<symbol id="about-icon2" viewBox="0 0 64 64">
		<path d="M32 56H0V10h64v26h-2V12H2v42h30v2z" />
		<path
			d="M27 24h-6v-6h6v6zm-4-2h2v-2h-2v2zM35 24h-6v-6h6v6zm-4-2h2v-2h-2v2zM43 24h-6v-6h6v6zm-4-2h2v-2h-2v2zM51 24h-6v-6h6v6zm-4-2h2v-2h-2v2zM59 24h-6v-6h6v6zm-4-2h2v-2h-2v2zM27 32h-6v-6h6v6zm-4-2h2v-2h-2v2zM19 32h-6v-6h6v6zm-4-2h2v-2h-2v2zM11 32H5v-6h6v6zm-4-2h2v-2H7v2zM35 32h-6v-6h6v6zm-4-2h2v-2h-2v2zM43 32h-6v-6h6v6zm-4-2h2v-2h-2v2zM51 32h-6v-6h6v6zm-4-2h2v-2h-2v2zM59 32h-6v-6h6v6zm-4-2h2v-2h-2v2zM27 40h-6v-6h6v6zm-4-2h2v-2h-2v2zM19 40h-6v-6h6v6zm-4-2h2v-2h-2v2zM11 40H5v-6h6v6zm-4-2h2v-2H7v2zM35 40h-6v-6h6v6zm-4-2h2v-2h-2v2zM27 48h-6v-6h6v6zm-4-2h2v-2h-2v2zM19 48h-6v-6h6v6zm-4-2h2v-2h-2v2zM11 48H5v-6h6v6zm-4-2h2v-2H7v2zM64 8h-2V2H2v6H0V0h64v8z" />
		<path
			d="M57 4H7v2h50V4zM17 20h-2v2h2v-2zM9 20H7v2h2v-2zM49 64c-8.3 0-15-6.7-15-15s6.7-15 15-15 15 6.7 15 15-6.7 15-15 15zm0-28c-7.2 0-13 5.8-13 13s5.8 13 13 13 13-5.8 13-13-5.8-13-13-13z" />
	</symbol>
	<symbol id="about-icon3" viewBox="0 0 56 64">
		<path
			d="M31 64H3c-1.7 0-3-1.3-3-3V15c0-1.7 1.3-3 3-3h2v2H3c-.6 0-1 .4-1 1v46c0 .6.4 1 1 1h28c.6 0 1-.4 1-1V15c0-.6-.4-1-1-1h-2v-2h2c1.7 0 3 1.3 3 3v46c0 1.7-1.3 3-3 3z" />
		<path
			d="M33 20h-4v2h4v-2zM5 20H1v2h4v-2zM33 54H1v2h32v-2zM21 58h-8v2h8v-2zM51 12h-9v2h9v-2zM43 54h-7v2h7v-2zM26 6H8v2h18V6zM26 10H8v2h18v-2zM26 14H8v2h18v-2zM26 18H8v2h18v-2zM26 30H8v2h18v-2zM26 34H8v2h18v-2zM26 38H8v2h18v-2zM26 42H8v2h18v-2zM26 46H8v2h18v-2z" />
		<path d="M6 52H4V6c0-3.3 2.7-6 6-6h24v2H10C7.8 2 6 3.8 6 6v46z" />
		<path
			d="M43 56c-2.8 0-5-2.2-5-5V6c0-2.2-1.8-4-4-4s-4 1.8-4 4v46h-2V6c0-3.3 2.7-6 6-6s6 2.7 6 6v45c0 1.7 1.3 3 3 3s3-1.3 3-3V17c0-2.8 2.2-5 5-5s5 2.2 5 5v16h-6v-2h4V17c0-1.7-1.3-3-3-3s-3 1.3-3 3v34c0 2.8-2.2 5-5 5zM18 24h-2v2h2v-2zM14 24h-2v2h2v-2zM22 24h-2v2h2v-2z" />
	</symbol>
	<symbol id="about-icon4" viewBox="0 0 64 64">
		<path
			d="M32 64c-3.9 0-7.7-.7-11.4-2.1l.7-1.9c3.4 1.3 7 1.9 10.6 1.9 16.5 0 30-13.5 30-30S48.5 2 32 2c-5.9 0-11.6 1.7-16.5 4.9l-1.1-1.7C19.7 1.8 25.7 0 32 0c17.6 0 32 14.4 32 32S49.6 64 32 64zM17 64h-6V40h6v24zm-4-2h2V42h-2v20z" />
		<path
			d="M15 41h-2v-5h1c6.6 0 12-5.4 12-12s-5.4-12-12-12S2 17.4 2 24c0 4.9 2.9 9.2 7.4 11.1l-.8 1.8C3.4 34.7 0 29.7 0 24c0-7.7 6.3-14 14-14s14 6.3 14 14c0 7.4-5.7 13.4-13 14v3zM33 1h-2v31h2V1z" />
		<path d="M31.302 31.284l-12.02 12.02 1.414 1.415 12.02-12.02-1.414-1.415z" />
		<path d="M44 31H32v2h12v-2z" />
		<path d="M32.675 31.264l-1.414 1.414 21.991 21.99 1.414-1.414-21.99-21.99z" />
		<path d="M32 60v-2c14.3 0 26-11.7 26-26S46.3 6 32 6V4c15.4 0 28 12.6 28 28S47.4 60 32 60z" />
		<path d="M48 31h-2v2h2v-2zM52 31h-2v2h2v-2zM56 31h-2v2h2v-2zM17 29h-6v-2h4v-1.4l-4-2V19h6v2h-4v1.4l4 2V29z" />
		<path d="M15 28h-2v3h2v-3zM15 17h-2v3h2v-3z" />
	</symbol>
	<symbol id="arrow-next" viewBox="0 0 8 12">
		<path fill="transparent" stroke="currentColor" stroke-width="2" d="M1 11l5-4.872L1 1" />
	</symbol>
	<symbol id="arrow-prev" viewBox="0 0 7 11">
		<path fill="transparent" stroke="currentColor" stroke-width="1.5" d="M6 10L2 5.615 6 1" />
	</symbol>
	<symbol id="arrow-up" viewBox="0 0 24 12">
		<path fill="transparent" stroke="#222" stroke-width="3" d="M23 10L12.282 2 1 10" />
	</symbol>
	<symbol id="arrow" viewBox="0 0 9 5">
		<path fill="transparent" stroke="currentColor" stroke-linecap="round" stroke-linejoin="round"
			stroke-width="1.75" d="M1 1l3.41 3L8 1" />
	</symbol>
	<symbol id="arrow_down" viewBox="0 0 20 13">
		<path d="M2 2l7.795 8L18 2" />
	</symbol>
	<symbol id="call" viewBox="0 0 21 21">
		<path fill="currentColor"
			d="M.946 7.315C.424 7.14.419 6.86.956 6.68L20.043.319c.529-.176.832.12.684.638l-5.454 19.086c-.15.529-.455.547-.68.045L11 12l6-8-8 6L.946 7.315z" />
	</symbol>
	<symbol id="check" viewBox="0 0 42 42">
		<path fill="#C20D19" stroke="#fff" stroke-linejoin="round" stroke-width="6"
			d="M27.81 12.86L16.005 24.665 14.19 22.85a4.447 4.447 0 0 0-6.288 6.288l4.959 4.96a4.447 4.447 0 0 0 6.288 0l14.95-14.95a4.447 4.447 0 0 0-6.29-6.288z" />
	</symbol>
	<symbol id="doc" viewBox="0 0 24 26">
		<path fill="#C20D19"
			d="M23.25 8.094v16.241a1.248 1.248 0 0 1-1.241 1.259H1.99a1.24 1.24 0 0 1-1.241-1.24V1.834c0-.671.561-1.24 1.252-1.24h13.744l7.504 7.5zm-2.5 1.25H14.5v-6.25H3.25v20h17.5V9.344zM7 6.844h3.75v2.5H7v-2.5zm0 5h10v2.5H7v-2.5zm0 5h10v2.5H7v-2.5z" />
	</symbol>
	<symbol id="double-next" viewBox="0 0 13 12">
		<path fill="transparent" stroke="#C20D19" stroke-width="1.5" d="M1 11l5-4.872L1 1M6 11l5-4.872L6 1" />
	</symbol>
	<symbol id="double-prev" viewBox="0 0 13 12">
		<path fill="transparent" stroke="#C20D19" stroke-width="1.5" d="M12 11L7 6.128 12 1M7 11L2 6.128 7 1" />
	</symbol>
	<symbol id="fb" viewBox="0 0 30 30">
		<path fill="transparent" stroke="currentColor" d="M.5.5h29v29H.5z" />
		<path fill="transparent" stroke="currentColor" d="M.5.5h29v29H.5z" />
		<path fill="currentColor"
			d="M16.482 16.11h1.852l.74-2.963h-2.592v-1.481c0-.763 0-1.482 1.482-1.482h1.11V7.696a20.867 20.867 0 0 0-2.116-.104c-2.01 0-3.439 1.227-3.439 3.481v2.074h-2.222v2.963h2.222v6.297h2.963V16.11z" />
		<path fill="currentColor"
			d="M16.482 16.11h1.852l.74-2.963h-2.592v-1.481c0-.763 0-1.482 1.482-1.482h1.11V7.696a20.867 20.867 0 0 0-2.116-.104c-2.01 0-3.439 1.227-3.439 3.481v2.074h-2.222v2.963h2.222v6.297h2.963V16.11z" />
	</symbol>
	<symbol id="in" viewBox="0 0 30 30">
		<path fill="transparent" stroke="currentColor" d="M.5.5h29v29H.5z" />
		<path fill="transparent" stroke="currentColor" d="M.5.5h29v29H.5z" />
		<path fill="currentColor"
			d="M11.205 9.75a1.5 1.5 0 1 1-3 0 1.5 1.5 0 0 1 3 0zm.045 2.61h-3v9.39h3v-9.39zm4.74 0h-2.985v9.39h2.955v-4.927c0-2.745 3.578-3 3.578 0v4.928H22.5v-5.948c0-4.627-5.295-4.455-6.54-2.182l.03-1.26z" />
	</symbol>

	<symbol id="loupe" viewBox="0 0 21 21">
		<path fill="currentColor"
			d="M9 0c4.968 0 9 4.032 9 9s-4.032 9-9 9-9-4.032-9-9 4.032-9 9-9zm0 16c3.867 0 7-3.133 7-7 0-3.868-3.133-7-7-7-3.868 0-7 3.132-7 7 0 3.867 3.132 7 7 7zm8.485.071l2.829 2.828-1.415 1.415-2.828-2.829 1.414-1.414z" />
	</symbol>
	<symbol id="more" viewBox="0 0 20 20">
		<path fill="#222"
			d="M3.463 2.433A9.961 9.961 0 0 1 10 0c5.523 0 10 4.477 10 10 0 2.136-.67 4.116-1.81 5.74L15 10h3A8 8 0 0 0 4.46 4.228l-.997-1.795zm13.074 15.134A9.961 9.961 0 0 1 10 20C4.477 20 0 15.523 0 10c0-2.136.67-4.116 1.81-5.74L5 10H2a8 8 0 0 0 13.54 5.772l.997 1.795z" />
	</symbol>
	<symbol id="next" viewBox="0 0 13 19">
		<path fill="transparent" stroke="currentColor" stroke-width="3" d="M2 17.094l8-7.795-8-8.205" />
	</symbol>
	<symbol id="phone" viewBox="0 0 18 18">
		<path fill="currentColor"
			d="M14.912 18h-.237c-2.524-.314-5.048-1.178-7.177-2.514a16.552 16.552 0 0 1-4.97-4.948C1.189 8.417.32 5.903.006 3.39A2.437 2.437 0 0 1 2.135.798H4.736c1.183 0 2.13.864 2.366 2.042.08.707.237 1.414.474 2.042.315.864.157 1.807-.474 2.435l-.552.55c.947 1.414 2.13 2.67 3.628 3.613l.553-.55c.63-.628 1.656-.864 2.524-.55.63.236 1.34.393 2.05.472a2.374 2.374 0 0 1 2.05 2.357v2.356c0 .628-.236 1.257-.709 1.65a2.24 2.24 0 0 1-1.735.785zM4.737 2.369H2.371c-.473.078-.789.392-.789.864C1.82 5.51 2.607 7.71 3.87 9.673c1.184 1.807 2.682 3.378 4.496 4.478a14.875 14.875 0 0 0 6.468 2.278h.079a.717.717 0 0 0 .552-.236.712.712 0 0 0 .237-.55v-2.356c0-.393-.316-.707-.71-.786-.789-.078-1.578-.314-2.367-.628a1.1 1.1 0 0 0-.867.157l-1.025 1.021a.841.841 0 0 1-.947.158A12.916 12.916 0 0 1 4.737 8.18c-.079-.314 0-.707.237-.942l1.025-1.021c.237-.236.316-.55.158-.864-.316-.786-.473-1.571-.631-2.357-.08-.314-.395-.628-.789-.628zm9.386 5.42c-.394 0-.71-.236-.789-.629-.236-1.257-1.262-2.2-2.524-2.513a.815.815 0 0 1-.63-.943c.078-.471.473-.707.946-.628 1.893.392 3.392 1.806 3.707 3.691.079.393-.158.864-.631.943 0 .079-.079.079-.079.079zm3.155 0c-.394 0-.71-.315-.789-.707-.315-2.907-2.603-5.185-5.6-5.577a.921.921 0 0 1-.71-.864c.08-.393.474-.707.868-.629 3.707.393 6.546 3.22 6.94 6.912.08.393-.236.786-.709.865z" />
	</symbol>
	<symbol id="plus" viewBox="0 0 17 17">
		<path fill="#C20D19" d="M0 7h17v3H0z" />
		<path fill="#C20D19" d="M10 0v17H7V0z" />
	</symbol>
	<symbol id="policy" viewBox="0 0 18 18">
		<path fill="#222"
			d="M14.166 13.166v1.667a.833.833 0 1 0 1.667 0v-12.5H4.166v9.166H2.5v-10a.833.833 0 0 1 .833-.833h13.333a.833.833 0 0 1 .834.833v13.334a2.5 2.5 0 0 1-2.5 2.5H3.333a2.5 2.5 0 0 1-2.5-2.5v-1.667h13.333z" />
	</symbol>
	<symbol id="prev" viewBox="0 0 13 19">
		<path fill="transparent" stroke="currentColor" stroke-width="3" d="M11 17.094L3 9.299l8-8.205" />
	</symbol>
	<symbol id="review" viewBox="0 0 18 18">
		<path fill="#C20D19"
			d="M9.834 15.613v1.667H8.167v-1.667H1.5a.833.833 0 0 1-.833-.833V1.447A.833.833 0 0 1 1.5.613h5A3.325 3.325 0 0 1 9 1.742 3.325 3.325 0 0 1 11.5.613h5a.833.833 0 0 1 .834.834V14.78a.833.833 0 0 1-.834.833H9.834zm5.833-1.666V2.28H11.5a1.667 1.667 0 0 0-1.666 1.667v10h5.833zm-7.5 0v-10A1.667 1.667 0 0 0 6.5 2.28H2.334v11.667h5.833z" />
	</symbol>
	<symbol id="share-fb" viewBox="0 0 11 20">
		<path fill="#4461AE"
			d="M7 11.5h2.5l1-4H7v-2c0-1.03 0-2 2-2h1.5V.14C10.174.097 8.943 0 7.643 0 4.928 0 3 1.657 3 4.7v2.8H0v4h3V20h4v-8.5z" />
	</symbol>
	<symbol id="share-mail" viewBox="0 0 19 15">
		<path fill="#000"
			d="M18.333 14.172a.833.833 0 0 1-.826.828H2.493a.827.827 0 0 1-.826-.828v-.839h15v-9.75l-6.667 6-8.333-7.5V.833A.833.833 0 0 1 2.5 0h15a.833.833 0 0 1 .833.833v13.34zM3.695 1.667L10 7.342l6.305-5.675H3.695zM0 10h6.667v1.667H0V10zm0-4.167h4.167V7.5H0V5.833z" />
	</symbol>
	<symbol id="share-tw" viewBox="0 0 22 18">
		<path fill="#29AEE8"
			d="M21.16 2.657a8.383 8.383 0 0 1-2.402.658A4.195 4.195 0 0 0 20.598 1c-.82.488-1.719.83-2.656 1.015a4.182 4.182 0 0 0-7.126 3.814 11.874 11.874 0 0 1-8.62-4.37 4.168 4.168 0 0 0-.566 2.103c0 1.45.738 2.73 1.86 3.48a4.168 4.168 0 0 1-1.894-.522v.052a4.185 4.185 0 0 0 3.355 4.1 4.21 4.21 0 0 1-1.89.073 4.185 4.185 0 0 0 3.907 2.905 8.395 8.395 0 0 1-6.19 1.732 11.83 11.83 0 0 0 6.41 1.88c7.692 0 11.9-6.373 11.9-11.9 0-.18-.006-.362-.014-.54a8.495 8.495 0 0 0 2.087-2.165v-.001z" />
	</symbol>
	<symbol id="share-vk" viewBox="0 0 22 13">
		<path fill="#5C7EA7" stroke="#5C7EA7" stroke-width=".5"
			d="M16.163 1.476l-.001.004v.001l-.003.005-.009.02-.036.081a19.497 19.497 0 0 1-.677 1.332c-.459.823-1.102 1.835-1.851 2.622-.507.48-.653.548-.81.55a.087.087 0 0 1-.026-.025c-.026-.036-.067-.123-.067-.304V1.738c0-.271-.037-.53-.189-.72-.164-.205-.409-.268-.673-.268H8.46c-.457 0-.8.34-.8.713 0 .197.079.347.168.47a2.848 2.848 0 0 0 .149.185c.043.052.086.102.129.157.175.226.366.546.41 1.165v2.973c0 .328-.035.456-.062.501l-.005.008c.001-.001.002-.001 0 0a.237.237 0 0 1-.081.008c-.022 0-.08-.012-.183-.076a2.111 2.111 0 0 1-.35-.29c-.267-.265-.578-.656-.904-1.144-.652-.974-1.345-2.309-1.858-3.737l-.003-.009c-.11-.272-.23-.514-.425-.68-.206-.178-.46-.244-.77-.244h-2.14c-.337 0-.599.075-.773.249-.176.175-.211.4-.211.58 0 .17.053.465.163.85.113.391.29.895.55 1.49.52 1.19 1.374 2.752 2.715 4.525 1.81 2.454 4.371 3.806 6.726 3.806.68 0 1.129-.069 1.408-.245a.74.74 0 0 0 .306-.367c.054-.14.065-.286.065-.42V9.395c0-.139.007-.236.02-.304.014-.068.03-.092.037-.099.005-.007.036-.042.258-.042.22 0 .694.085 1.954 1.236a23.375 23.375 0 0 1 1.014 1.022c.178.188.335.354.478.49.18.17.352.31.544.407.197.098.403.145.641.145h2.14c.333 0 .65-.077.85-.297.213-.234.229-.554.122-.884l-.003-.006c-.113-.322-.356-.696-.67-1.1a21.19 21.19 0 0 0-1.184-1.36 13.03 13.03 0 0 0-.836-.822l-.021-.02c-.288-.267-.503-.47-.59-.594l-.006-.008-.006-.007c-.146-.178-.154-.255-.15-.29.005-.057.04-.129.163-.307l.013-.02.013-.017.083-.114c.072-.099.175-.24.3-.415.25-.347.587-.822.931-1.334.345-.512.7-1.063.986-1.564.278-.486.506-.95.583-1.288.074-.24.098-.522-.07-.746-.17-.227-.468-.307-.814-.307h-2.14c-.319 0-.57.08-.767.223a1.23 1.23 0 0 0-.393.503zm-3.385 4.616z" />
	</symbol>
	<symbol id="tw" viewBox="0 0 30 30">
		<path fill="transparent" stroke="currentColor" d="M.5.5h29v29H.5z" />
		<path fill="transparent" stroke="currentColor" d="M.5.5h29v29H.5z" />
		<path fill="currentColor"
			d="M22.528 10.3a6.212 6.212 0 0 1-1.78.487 3.108 3.108 0 0 0 1.364-1.715 6.19 6.19 0 0 1-1.967.752 3.098 3.098 0 0 0-5.279 2.825 8.794 8.794 0 0 1-6.385-3.236 3.097 3.097 0 0 0 .959 4.136 3.088 3.088 0 0 1-1.404-.388v.039a3.1 3.1 0 0 0 2.486 3.038 3.118 3.118 0 0 1-1.4.053 3.1 3.1 0 0 0 2.894 2.152 6.219 6.219 0 0 1-4.586 1.283 8.763 8.763 0 0 0 4.748 1.392c5.698 0 8.815-4.72 8.815-8.814 0-.134-.004-.268-.01-.4a6.292 6.292 0 0 0 1.546-1.604z" />
		<path fill="currentColor"
			d="M22.528 10.3a6.212 6.212 0 0 1-1.78.487 3.108 3.108 0 0 0 1.364-1.715 6.19 6.19 0 0 1-1.967.752 3.098 3.098 0 0 0-5.279 2.825 8.794 8.794 0 0 1-6.385-3.236 3.097 3.097 0 0 0 .959 4.136 3.088 3.088 0 0 1-1.404-.388v.039a3.1 3.1 0 0 0 2.486 3.038 3.118 3.118 0 0 1-1.4.053 3.1 3.1 0 0 0 2.894 2.152 6.219 6.219 0 0 1-4.586 1.283 8.763 8.763 0 0 0 4.748 1.392c5.698 0 8.815-4.72 8.815-8.814 0-.134-.004-.268-.01-.4a6.292 6.292 0 0 0 1.546-1.604z" />
	</symbol>
	<symbol id="close" viewBox="0 0 24 24">
		<g stroke-width="3" stroke="#000" transform="translate(1.000000, 1.000000)">
			<path d="M0,11 L22,11"></path>
			<path d="M11,0 L11,22"></path>
		</g>
	</symbol>
	<symbol id="close-light" viewBox="0 0 24 24">
		<g stroke-width="3" stroke="#FFF" transform="translate(1.000000, 1.000000)">
			<path d="M0,11 L22,11"></path>
			<path d="M11,0 L11,22"></path>
		</g>
	</symbol>
</svg>