<?xml version="1.0" encoding="UTF-8"?>
<!DOCTYPE svg PUBLIC "-//W3C//DTD SVG 1.1//EN" "http://www.w3.org/Graphics/SVG/1.1/DTD/svg11.dtd">
<svg xmlns="http://www.w3.org/2000/svg">
	<symbol id="about-icon1" viewBox="0 0 56 64">
		<path
			d="M10 38H8V0h7v2h-5v36zM56 64H20v-2h34V9.4L46.6 2H26V0h21.4L56 8.6V64zM18 64H0V50h6v2H2v10h14V52H8v-2h10v14z" />
		<path
			d="M16 51h-2v-4c0-2.8-2.2-5-5-5s-5 2.2-5 5v4H2v-4c0-3.9 3.1-7 7-7s7 3.1 7 7v4zM24 18.4l-5-5-5 5V0h10v18.4zm-5-7.8l3 3V2h-6v11.6l3-3zM50 52H30v2h20v-2zM46 56H20v2h26v-2zM36 48h-2v2h2v-2zM32 48h-2v2h2v-2zM50 48H38v2h12v-2zM50 56h-2v2h2v-2zM55 10h-9V1h2v7h7v2zM30 32H14v2h16v-2zM50 28H14v2h36v-2zM50 24H14v2h36v-2zM50 14H38v2h12v-2zM14 56h-2v2h2v-2z" />
	</symbol>
	<symbol id="about-icon2" viewBox="0 0 64 64">
		<path d="M32 56H0V10h64v26h-2V12H2v42h30v2z" />
		<path
			d="M27 24h-6v-6h6v6zm-4-2h2v-2h-2v2zM35 24h-6v-6h6v6zm-4-2h2v-2h-2v2zM43 24h-6v-6h6v6zm-4-2h2v-2h-2v2zM51 24h-6v-6h6v6zm-4-2h2v-2h-2v2zM59 24h-6v-6h6v6zm-4-2h2v-2h-2v2zM27 32h-6v-6h6v6zm-4-2h2v-2h-2v2zM19 32h-6v-6h6v6zm-4-2h2v-2h-2v2zM11 32H5v-6h6v6zm-4-2h2v-2H7v2zM35 32h-6v-6h6v6zm-4-2h2v-2h-2v2zM43 32h-6v-6h6v6zm-4-2h2v-2h-2v2zM51 32h-6v-6h6v6zm-4-2h2v-2h-2v2zM59 32h-6v-6h6v6zm-4-2h2v-2h-2v2zM27 40h-6v-6h6v6zm-4-2h2v-2h-2v2zM19 40h-6v-6h6v6zm-4-2h2v-2h-2v2zM11 40H5v-6h6v6zm-4-2h2v-2H7v2zM35 40h-6v-6h6v6zm-4-2h2v-2h-2v2zM27 48h-6v-6h6v6zm-4-2h2v-2h-2v2zM19 48h-6v-6h6v6zm-4-2h2v-2h-2v2zM11 48H5v-6h6v6zm-4-2h2v-2H7v2zM64 8h-2V2H2v6H0V0h64v8z" />
		<path
			d="M57 4H7v2h50V4zM17 20h-2v2h2v-2zM9 20H7v2h2v-2zM49 64c-8.3 0-15-6.7-15-15s6.7-15 15-15 15 6.7 15 15-6.7 15-15 15zm0-28c-7.2 0-13 5.8-13 13s5.8 13 13 13 13-5.8 13-13-5.8-13-13-13z" />
	</symbol>
	<symbol id="about-icon3" viewBox="0 0 56 64">
		<path
			d="M31 64H3c-1.7 0-3-1.3-3-3V15c0-1.7 1.3-3 3-3h2v2H3c-.6 0-1 .4-1 1v46c0 .6.4 1 1 1h28c.6 0 1-.4 1-1V15c0-.6-.4-1-1-1h-2v-2h2c1.7 0 3 1.3 3 3v46c0 1.7-1.3 3-3 3z" />
		<path
			d="M33 20h-4v2h4v-2zM5 20H1v2h4v-2zM33 54H1v2h32v-2zM21 58h-8v2h8v-2zM51 12h-9v2h9v-2zM43 54h-7v2h7v-2zM26 6H8v2h18V6zM26 10H8v2h18v-2zM26 14H8v2h18v-2zM26 18H8v2h18v-2zM26 30H8v2h18v-2zM26 34H8v2h18v-2zM26 38H8v2h18v-2zM26 42H8v2h18v-2zM26 46H8v2h18v-2z" />
		<path d="M6 52H4V6c0-3.3 2.7-6 6-6h24v2H10C7.8 2 6 3.8 6 6v46z" />
		<path
			d="M43 56c-2.8 0-5-2.2-5-5V6c0-2.2-1.8-4-4-4s-4 1.8-4 4v46h-2V6c0-3.3 2.7-6 6-6s6 2.7 6 6v45c0 1.7 1.3 3 3 3s3-1.3 3-3V17c0-2.8 2.2-5 5-5s5 2.2 5 5v16h-6v-2h4V17c0-1.7-1.3-3-3-3s-3 1.3-3 3v34c0 2.8-2.2 5-5 5zM18 24h-2v2h2v-2zM14 24h-2v2h2v-2zM22 24h-2v2h2v-2z" />
	</symbol>
	<symbol id="about-icon4" viewBox="0 0 64 64">
		<path
			d="M32 64c-3.9 0-7.7-.7-11.4-2.1l.7-1.9c3.4 1.3 7 1.9 10.6 1.9 16.5 0 30-13.5 30-30S48.5 2 32 2c-5.9 0-11.6 1.7-16.5 4.9l-1.1-1.7C19.7 1.8 25.7 0 32 0c17.6 0 32 14.4 32 32S49.6 64 32 64zM17 64h-6V40h6v24zm-4-2h2V42h-2v20z" />
		<path
			d="M15 41h-2v-5h1c6.6 0 12-5.4 12-12s-5.4-12-12-12S2 17.4 2 24c0 4.9 2.9 9.2 7.4 11.1l-.8 1.8C3.4 34.7 0 29.7 0 24c0-7.7 6.3-14 14-14s14 6.3 14 14c0 7.4-5.7 13.4-13 14v3zM33 1h-2v31h2V1z" />
		<path d="M31.302 31.284l-12.02 12.02 1.414 1.415 12.02-12.02-1.414-1.415z" />
		<path d="M44 31H32v2h12v-2z" />
		<path d="M32.675 31.264l-1.414 1.414 21.991 21.99 1.414-1.414-21.99-21.99z" />
		<path d="M32 60v-2c14.3 0 26-11.7 26-26S46.3 6 32 6V4c15.4 0 28 12.6 28 28S47.4 60 32 60z" />
		<path d="M48 31h-2v2h2v-2zM52 31h-2v2h2v-2zM56 31h-2v2h2v-2zM17 29h-6v-2h4v-1.4l-4-2V19h6v2h-4v1.4l4 2V29z" />
		<path d="M15 28h-2v3h2v-3zM15 17h-2v3h2v-3z" />
	</symbol>
	<symbol id="arrow-next" viewBox="0 0 8 12">
		<path fill="transparent" stroke="currentColor" stroke-width="2" d="M1 11l5-4.872L1 1" />
	</symbol>
	<symbol id="arrow-prev" viewBox="0 0 7 11">
		<path fill="transparent" stroke="currentColor" stroke-width="1.5" d="M6 10L2 5.615 6 1" />
	</symbol>
	<symbol id="arrow-up" viewBox="0 0 24 12">
		<path fill="transparent" stroke="#222" stroke-width="3" d="M23 10L12.282 2 1 10" />
	</symbol>
	<symbol id="arrow" viewBox="0 0 9 5">
		<path fill="transparent" stroke="currentColor" stroke-linecap="round" stroke-linejoin="round"
			stroke-width="1.75" d="M1 1l3.41 3L8 1" />
	</symbol>
	<symbol id="arrow_down" viewBox="0 0 20 13">
		<path d="M2 2l7.795 8L18 2" />
	</symbol>
	<symbol id="call" viewBox="0 0 21 21">
		<path fill="currentColor"
			d="M.946 7.315C.424 7.14.419 6.86.956 6.68L20.043.319c.529-.176.832.12.684.638l-5.454 19.086c-.15.529-.455.547-.68.045L11 12l6-8-8 6L.946 7.315z" />
	</symbol>
	<symbol id="check" viewBox="0 0 42 42">
		<path fill="#C20D19" stroke="#fff" stroke-linejoin="round" stroke-width="6"
			d="M27.81 12.86L16.005 24.665 14.19 22.85a4.447 4.447 0 0 0-6.288 6.288l4.959 4.96a4.447 4.447 0 0 0 6.288 0l14.95-14.95a4.447 4.447 0 0 0-6.29-6.288z" />
	</symbol>
	<symbol id="doc" viewBox="0 0 24 26">
		<path fill="#C20D19"
			d="M23.25 8.094v16.241a1.248 1.248 0 0 1-1.241 1.259H1.99a1.24 1.24 0 0 1-1.241-1.24V1.834c0-.671.561-1.24 1.252-1.24h13.744l7.504 7.5zm-2.5 1.25H14.5v-6.25H3.25v20h17.5V9.344zM7 6.844h3.75v2.5H7v-2.5zm0 5h10v2.5H7v-2.5zm0 5h10v2.5H7v-2.5z" />
	</symbol>
	<symbol id="double-next" viewBox="0 0 13 12">
		<path fill="transparent" stroke="#C20D19" stroke-width="1.5" d="M1 11l5-4.872L1 1M6 11l5-4.872L6 1" />
	</symbol>
	<symbol id="double-prev" viewBox="0 0 13 12">
		<path fill="transparent" stroke="#C20D19" stroke-width="1.5" d="M12 11L7 6.128 12 1M7 11L2 6.128 7 1" />
	</symbol>
	<symbol id="fb" viewBox="0 0 30 30">
		<path fill="transparent" stroke="currentColor" d="M.5.5h29v29H.5z" />
		<path fill="transparent" stroke="currentColor" d="M.5.5h29v29H.5z" />
		<path fill="currentColor"
			d="M16.482 16.11h1.852l.74-2.963h-2.592v-1.481c0-.763 0-1.482 1.482-1.482h1.11V7.696a20.867 20.867 0 0 0-2.116-.104c-2.01 0-3.439 1.227-3.439 3.481v2.074h-2.222v2.963h2.222v6.297h2.963V16.11z" />
		<path fill="currentColor"
			d="M16.482 16.11h1.852l.74-2.963h-2.592v-1.481c0-.763 0-1.482 1.482-1.482h1.11V7.696a20.867 20.867 0 0 0-2.116-.104c-2.01 0-3.439 1.227-3.439 3.481v2.074h-2.222v2.963h2.222v6.297h2.963V16.11z" />
	</symbol>
	<symbol id="in" viewBox="0 0 30 30">
		<path fill="transparent" stroke="currentColor" d="M.5.5h29v29H.5z" />
		<path fill="transparent" stroke="currentColor" d="M.5.5h29v29H.5z" />
		<path fill="currentColor"
			d="M11.205 9.75a1.5 1.5 0 1 1-3 0 1.5 1.5 0 0 1 3 0zm.045 2.61h-3v9.39h3v-9.39zm4.74 0h-2.985v9.39h2.955v-4.927c0-2.745 3.578-3 3.578 0v4.928H22.5v-5.948c0-4.627-5.295-4.455-6.54-2.182l.03-1.26z" />
	</symbol>
	<symbol id="logo" viewBox="0 0 231 33">
		<path fill="#000"
			d="M153.104 16.102h-3.91a.583.583 0 0 1-.576-.594V2.436c0-.33.256-.594.576-.594h3.974c1.41 0 5.511 1.188 5.511 7.13-.064 5.942-4.165 7.13-5.575 7.13zm-3.076-1.452h3.076c1.089 0 4.101-1.255 4.101-5.612s-2.948-5.678-4.037-5.678h-3.14v11.29zM163.87 16.173c-.385 0-.705-.33-.705-.66V2.375c0-.33.32-.66.705-.66.385 0 .705.33.705.66v13.138c0 .33-.32.66-.705.66zM177.2 1.842h-9.805c-.321 0-.641.33-.641.726 0 .396.32.726.641.726h4.165v12.214c0 .33.321.66.705.66.385 0 .705-.33.705-.66V3.294h4.166c.32 0 .641-.33.641-.726.064-.396-.257-.726-.577-.726zM142.914 1.715c-.385 0-.705.33-.705.66v10.761l-6.473-10.959s-.256-.462-.705-.462c-.384 0-.705.264-.705.66v13.138c0 .33.321.66.705.66.385 0 .705-.33.705-.66V4.686l6.409 10.96c.192.33.512.593.897.527.32-.066.513-.264.513-.66V2.375c.064-.33-.193-.66-.641-.66zM215.717 1.715c-.385 0-.705.33-.705.66v10.761l-6.473-10.959s-.257-.462-.705-.462c-.385 0-.705.264-.705.66v13.138c0 .33.32.66.705.66.384 0 .705-.33.705-.66V4.686l6.408 10.96c.193.33.513.593.898.527.32-.066.512-.264.512-.66V2.375c.064-.33-.256-.66-.64-.66zM112.344 1.842h-2.948a.584.584 0 0 0-.577.594v13.072c0 .33.321.594.705.594.385 0 .705-.264.705-.594v-3.895s3.525.066 4.999-.726c1.538-.793 2.371-2.245 2.371-4.424.128-3.829-3.012-4.621-5.255-4.621zm-2.051 8.318V3.294s2.692-.132 3.781.198c1.154.396 2.243 1.255 2.243 2.971 0 1.585-.576 2.641-1.73 3.17-1.025.527-4.294.527-4.294.527zM130.417 15.25l-4.742-13.203c-.065-.265-.385-.397-.641-.397-.321 0-.577.132-.641.397L119.65 15.25c-.128.33.064.726.449.858s.769-.066.897-.33l1.026-2.905h6.024l1.025 2.905c.128.33.513.462.897.33.385-.132.577-.594.449-.858zm-7.947-3.697l2.564-7.46 2.563 7.46h-5.127zM203.412 15.25l-4.743-13.203c-.064-.265-.384-.397-.641-.397-.32 0-.576.132-.641.397l-4.742 13.204c-.128.33.064.726.449.858.384.132.769-.066.897-.33l1.025-2.905h6.024l1.026 2.905c.128.33.512.462.897.33.32-.132.513-.594.449-.858zm-7.947-3.697l2.563-7.46 2.564 7.46h-5.127zM189.248 15.181l-2.627-5.215c2.115-1.189 2.371-2.905 2.307-4.027-.192-3.433-3.205-4.16-5.319-4.16h-2.884a.583.583 0 0 0-.577.594v13.139c0 .33.32.594.705.594.384 0 .705-.264.705-.595v-4.687s1.987.132 3.717-.33l2.692 5.348c.128.264.576.462.961.264.384-.198.513-.66.32-.925zm-7.69-5.941V3.298s2.692-.066 3.781.198 2.115 1.32 2.115 2.64c0 1.057-.513 2.245-2.307 2.84-1.282.396-3.589.264-3.589.264zM224.56 16.238c-3.076 0-4.165-2.31-4.229-2.377-.193-.33-.065-.792.256-.924.32-.198.769-.066.897.264.064.066.897 1.65 3.012 1.65 2.435 0 3.076-1.452 3.205-2.64.064-1.188-.641-2.179-1.923-2.575-.192-.066-.449-.132-.641-.198-1.218-.396-2.627-.792-3.589-1.717-.705-.726-1.025-1.848-.833-2.97.192-1.189 1.474-2.971 4.038-3.037 2.05-.066 3.204 1.122 3.332 1.254.32.264.385.66.128.99-.256.33-.641.396-.961.132-.064-.066-.897-.99-2.371-.99-1.026 0-2.5.528-2.884 1.915-.192.726.128 1.386.448 1.65.769.792 1.923 1.056 3.012 1.387.257.066.449.132.705.198 2.051.594 3.077 2.244 2.884 4.027 0 .924-.576 3.961-4.486 3.961z" />
		<path fill="#C20D19" d="M35.76 0v30.04h29.224V0H35.76zm27.301 28.059H37.683V1.98H63.06v26.078z" />
		<path fill="#C20D19"
			d="M57.293 7.922H43.451v14.26h13.842V7.922zM0 0v30.04h29.224V0H0zm21.533 22.117H7.69V7.922h13.843v14.195zM70.816 0v30.04h29.223V0H70.816zm9.613 20.202V9.903h9.998v10.3h-9.998zm17.688 1.915h-5.768V7.922H78.506v14.195H72.74V1.98h25.378v20.136z" />
		<path fill="#000"
			d="M111.767 23.625c-.769 0-1.345.264-1.794.792-.449.528-.641 1.188-.641 2.113 0 .924.192 1.65.641 2.112.449.528 1.025.726 1.794.726.449 0 1.026-.066 1.603-.264v.727c-.449.198-1.026.264-1.731.264-1.025 0-1.794-.33-2.307-.925-.513-.594-.833-1.518-.833-2.64 0-.727.128-1.387.385-1.915.256-.528.64-.99 1.153-1.254.513-.265 1.09-.463 1.73-.463.705 0 1.346.133 1.859.397l-.32.726a3.336 3.336 0 0 0-1.539-.396zM116.958 30.107c-.769 0-1.346-.264-1.794-.727-.449-.462-.641-1.122-.641-1.98 0-.858.192-1.519.577-2.047.384-.528.961-.726 1.602-.726.641 0 1.153.198 1.538.66.384.462.577.99.577 1.717v.528h-3.525c0 .594.192 1.056.449 1.386.256.33.705.462 1.217.462.577 0 1.09-.132 1.602-.33v.726c-.256.133-.512.199-.769.265-.256.066-.512.066-.833.066zm-.256-4.754c-.385 0-.705.132-.961.396-.257.264-.385.66-.449 1.123h2.692c0-.529-.129-.859-.321-1.123-.256-.264-.512-.396-.961-.396zM123.623 25.484h-1.666v4.556h-.769v-4.556h-1.667v-.66h4.038v.66h.064zM126.828 30.107c-.769 0-1.346-.264-1.795-.727-.448-.462-.64-1.122-.64-1.98 0-.858.192-1.519.576-2.047.385-.528.962-.726 1.603-.726.64 0 1.153.198 1.538.66.384.462.576.99.576 1.717v.528h-3.524c0 .594.192 1.056.448 1.386.257.33.705.462 1.218.462.577 0 1.089-.132 1.602-.33v.726c-.256.133-.513.199-.769.265-.192.066-.513.066-.833.066zm-.192-4.754c-.385 0-.705.132-.962.396-.256.264-.384.66-.448 1.123h2.691c0-.529-.128-.859-.32-1.123a1.284 1.284 0 0 0-.961-.396zM134.198 26.078c0 .33-.064.594-.257.793-.192.198-.448.264-.833.33v.066c.449.066.769.198.962.396.192.198.32.462.32.858 0 .462-.192.858-.513 1.122-.32.264-.833.396-1.538.396h-2.243v-5.281h2.243c1.218 0 1.859.462 1.859 1.32zm-.769.132c0-.264-.064-.462-.257-.528-.192-.132-.448-.132-.897-.132h-1.474v1.453h1.282c.448 0 .833-.067 1.025-.199.257-.132.321-.33.321-.594zm.192 2.245a.698.698 0 0 0-.32-.594c-.193-.132-.577-.198-1.026-.198h-1.41v1.716h1.41c.897 0 1.346-.33 1.346-.924zM139.965 27.4c0 .859-.192 1.519-.64 1.98a2.334 2.334 0 0 1-1.731.727c-.448 0-.833-.132-1.217-.33-.385-.198-.641-.528-.834-.924-.192-.397-.256-.925-.256-1.453 0-.858.192-1.518.641-1.98.384-.463.961-.727 1.73-.727.705 0 1.282.264 1.731.727.32.462.576 1.122.576 1.98zm-3.909 0c0 .66.128 1.189.385 1.519.256.33.641.528 1.153.528.513 0 .897-.198 1.154-.528.256-.33.384-.859.384-1.519 0-.66-.128-1.188-.384-1.518-.257-.33-.641-.528-1.154-.528-.512 0-.897.198-1.153.528-.257.33-.385.858-.385 1.518zM142.08 24.755v3.301l-.064.858v.265l2.756-4.49h.961v5.282h-.705v-4.49l-2.756 4.556h-.961v-5.282h.769zm1.41-.66c-.577 0-.961-.132-1.282-.33-.256-.198-.384-.594-.448-1.122h.705c0 .33.128.594.256.726s.384.198.769.198c.32 0 .577-.066.705-.198s.256-.396.256-.66h.705c-.064.528-.192.858-.448 1.122-.193.132-.641.264-1.218.264zM150.732 30.04h-.769v-5.282h4.294v5.281h-.769v-4.555h-2.756v4.555zM159.063 30.04l-.128-.726h-.064c-.256.33-.513.528-.769.66s-.577.198-.961.198c-.513 0-.897-.132-1.218-.396a1.618 1.618 0 0 1-.448-1.123c0-1.056.833-1.584 2.499-1.65h.897v-.33c0-.396-.064-.726-.256-.924-.192-.199-.449-.265-.833-.265-.449 0-.897.132-1.474.396l-.257-.594c.257-.132.513-.264.834-.33.32-.066.576-.132.897-.132.576 0 1.089.132 1.346.396.32.264.448.727.448 1.32v3.5h-.513zm-1.73-.594c.449 0 .833-.132 1.154-.397.256-.264.384-.66.384-1.122v-.462l-.769.066c-.641 0-1.025.132-1.346.264a.951.951 0 0 0-.384.792c0 .265.064.529.256.66.128.133.385.199.705.199zM163.613 30.107a2 2 0 0 1-.897-.198 2.018 2.018 0 0 1-.705-.594h-.064c.064.33.064.594.064.858v2.179h-.769v-7.593h.641l.128.727h.064c.193-.265.449-.529.705-.595a2 2 0 0 1 .897-.198c.705 0 1.218.264 1.539.727.384.462.576 1.122.576 1.98 0 .859-.192 1.519-.576 1.98-.385.529-.898.727-1.603.727zm-.064-4.753c-.512 0-.897.132-1.153.462-.257.264-.321.792-.385 1.386v.198c0 .726.128 1.255.385 1.585.256.33.641.462 1.153.462.449 0 .769-.198 1.026-.528.256-.396.384-.859.384-1.519 0-.66-.128-1.188-.384-1.518-.257-.33-.577-.528-1.026-.528zM170.599 25.484h-1.667v4.556h-.769v-4.556h-1.666v-.66h4.038v.66h.064zM172.458 24.758v2.178h2.883v-2.178h.769v5.281h-.769v-2.376h-2.883v2.376h-.77v-5.281h.77zM179.891 30.095c-.769 0-1.345-.264-1.794-.727-.449-.462-.641-1.122-.641-1.98 0-.858.192-1.519.577-2.047.384-.528.961-.726 1.602-.726.641 0 1.154.198 1.538.66.385.462.577.99.577 1.717v.528h-3.525c0 .594.192 1.056.449 1.386.256.33.705.462 1.217.462.577 0 1.09-.132 1.603-.33v.727c-.257.132-.513.198-.77.264-.192.066-.512.066-.833.066zm-.192-4.754c-.384 0-.705.132-.961.396-.257.264-.385.66-.449 1.123h2.692c0-.529-.128-.859-.321-1.123a1.283 1.283 0 0 0-.961-.396zm-1.282-1.98c0-.198.064-.265.129-.33a.481.481 0 0 1 .32-.133c.128 0 .192.067.32.133a.513.513 0 0 1 .129.33.513.513 0 0 1-.129.33.481.481 0 0 1-.32.132c-.128 0-.192-.066-.32-.132-.129-.066-.129-.198-.129-.33zm1.731 0c0-.198.064-.265.128-.33a.481.481 0 0 1 .32-.133c.128 0 .193.067.321.133a.513.513 0 0 1 .128.33.513.513 0 0 1-.128.33.484.484 0 0 1-.321.132c-.128 0-.192-.066-.32-.132a.513.513 0 0 1-.128-.33zM185.531 30.107a2 2 0 0 1-.897-.198 2.018 2.018 0 0 1-.705-.594h-.064c.064.33.064.594.064.858v2.179h-.769v-7.593h.641l.128.727h.064c.193-.265.449-.529.705-.595a2 2 0 0 1 .897-.198c.705 0 1.218.264 1.539.727.384.462.576 1.122.576 1.98 0 .859-.192 1.519-.576 1.98-.449.529-.962.727-1.603.727zm-.128-4.753c-.512 0-.897.132-1.153.462-.257.264-.321.792-.385 1.386v.198c0 .726.128 1.255.385 1.585.256.33.641.462 1.153.462.449 0 .769-.198 1.026-.528.256-.396.384-.859.384-1.519 0-.66-.128-1.188-.384-1.518-.257-.33-.577-.528-1.026-.528zM193.734 30.027h-.769v-6.271h-2.179v-.727h5.127v.727h-2.179v6.271zM199.053 30.027h-.769v-6.271h-2.179v-.727h5.127v.727h-2.179v6.271zM209.756 30.027h-.961l-3.14-3.565v3.566h-.769v-6.999h.769v3.367l3.076-3.367h.897l-3.012 3.433 3.14 3.566zM214.37 30.041h-.769v-4.555h-1.538a20.717 20.717 0 0 1-.32 2.706c-.128.66-.321 1.189-.577 1.453-.256.33-.513.462-.897.462-.192 0-.321 0-.385-.066v-.594h.257c.384 0 .641-.396.833-1.188.192-.793.384-1.981.448-3.566h3.012v5.348h-.064zM215.268 24.76h.833l1.089 2.97c.257.66.385 1.189.449 1.453h.064c.064-.132.128-.462.256-.858.128-.397.577-1.585 1.282-3.632h.833l-2.179 6.008c-.192.594-.448.99-.769 1.255-.32.264-.641.396-1.089.396-.257 0-.449 0-.705-.066v-.66c.192.066.384.066.576.066.513 0 .898-.33 1.154-.925l.256-.726-2.05-5.282zM220.651 26.871c0-1.122.192-2.047.513-2.707.32-.66.833-1.056 1.538-1.188.897-.198 1.666-.33 2.371-.462l.128.726c-1.089.198-1.859.33-2.307.462-.449.132-.769.33-1.025.726-.257.396-.321.925-.385 1.585h.064c.192-.264.449-.462.769-.66.321-.133.641-.199.961-.199.641 0 1.09.198 1.474.66.321.397.513.991.513 1.717 0 .793-.192 1.453-.641 1.915-.384.462-.961.66-1.73.66-.705 0-1.282-.264-1.666-.858-.385-.528-.577-1.32-.577-2.377zm2.371 2.575c.961 0 1.41-.594 1.41-1.849 0-1.188-.449-1.782-1.282-1.782-.256 0-.448.066-.705.132-.192.132-.448.264-.576.396-.193.198-.321.33-.449.528 0 .858.128 1.453.384 1.915.257.462.705.66 1.218.66zM229.815 30.04l-.128-.726h-.064c-.256.33-.513.528-.769.66s-.577.198-.961.198c-.513 0-.897-.132-1.218-.396a1.618 1.618 0 0 1-.448-1.123c0-1.056.833-1.584 2.499-1.65h.897v-.33c0-.396-.064-.726-.256-.924-.192-.199-.449-.265-.833-.265-.449 0-.898.132-1.474.396l-.257-.594c.257-.132.513-.264.833-.33.321-.066.577-.132.898-.132.576 0 1.089.132 1.345.396.321.264.449.727.449 1.32v3.5h-.513zm-1.73-.594c.513 0 .833-.132 1.154-.397.256-.264.384-.66.384-1.122v-.462l-.769.066c-.641 0-1.025.132-1.346.264a.951.951 0 0 0-.384.792c0 .265.064.529.256.66.128.133.385.199.705.199z" />
	</symbol>
	<symbol id="logo_white" viewBox="0 0 231 33">
		<path fill="#fff"
			d="M153.473 16.13h-3.918a.585.585 0 0 1-.578-.595V2.432c0-.331.257-.596.578-.596h3.983c1.413 0 5.524 1.191 5.524 7.147-.064 5.956-4.175 7.148-5.589 7.148zm-3.083-1.455h3.083c1.093 0 4.112-1.258 4.112-5.626 0-4.367-2.955-5.69-4.047-5.69h-3.148v11.316zM164.265 16.198c-.385 0-.706-.33-.706-.662V2.367c0-.33.321-.66.706-.66.386 0 .707.33.707.66v13.17c0 .331-.321.662-.707.662zM177.627 1.836h-9.828c-.322 0-.643.33-.643.728 0 .397.321.728.643.728h4.175v12.243c0 .33.322.662.707.662.385 0 .707-.331.707-.662V3.292h4.175c.321 0 .643-.331.643-.728.064-.397-.257-.728-.579-.728zM143.261 1.705c-.386 0-.707.331-.707.662v10.787l-6.488-10.986s-.257-.463-.707-.463c-.385 0-.707.265-.707.662v13.17c0 .33.322.661.707.661.385 0 .707-.33.707-.662V4.684l6.424 10.986c.192.33.514.596.899.53.321-.067.514-.265.514-.663V2.367c.064-.33-.193-.66-.642-.66zM216.233 1.705c-.385 0-.706.331-.706.662v10.787l-6.489-10.986s-.257-.463-.706-.463c-.386 0-.707.265-.707.662v13.17c0 .33.321.661.707.661.385 0 .706-.33.706-.662V4.684l6.424 10.986c.193.33.514.596.9.53.321-.067.514-.265.514-.663V2.367c.064-.33-.257-.66-.643-.66zM112.615 1.836h-2.955a.585.585 0 0 0-.578.596v13.103c0 .33.321.596.707.596.385 0 .706-.265.706-.596V11.63s3.534.067 5.011-.728c1.542-.794 2.377-2.25 2.377-4.434.129-3.838-3.019-4.632-5.268-4.632zm-2.055 8.339V3.292s2.698-.132 3.79.198c1.156.397 2.248 1.258 2.248 2.978 0 1.589-.578 2.648-1.734 3.177-1.028.53-4.304.53-4.304.53zM130.731 15.28l-4.754-13.236c-.065-.265-.386-.398-.643-.398-.321 0-.578.133-.642.398l-4.754 13.235c-.128.331.064.728.45.86.385.133.771-.065.899-.33l1.028-2.912h6.039l1.027 2.912c.129.33.514.463.9.33.385-.132.578-.595.45-.86zm-7.966-3.707l2.569-7.478 2.57 7.478h-5.139zM203.906 15.28l-4.754-13.236c-.064-.265-.385-.398-.642-.398-.321 0-.578.133-.642.398l-4.754 13.235c-.129.331.064.728.45.86.385.133.77-.065.899-.33l1.028-2.912h6.038l1.028 2.912c.129.33.514.463.9.33.321-.132.514-.595.449-.86zm-7.966-3.707l2.57-7.478 2.57 7.478h-5.14zM189.708 15.212l-2.634-5.228c2.12-1.192 2.377-2.912 2.313-4.037-.193-3.442-3.212-4.17-5.332-4.17h-2.891a.585.585 0 0 0-.578.596v13.17c0 .33.321.595.707.595.385 0 .706-.265.706-.595v-4.7s1.992.133 3.726-.33l2.698 5.36c.129.265.578.464.964.265.385-.198.514-.662.321-.926zm-7.709-5.956V3.299s2.698-.066 3.79.199c1.093.265 2.12 1.324 2.12 2.647 0 1.059-.514 2.25-2.312 2.846-1.285.397-3.598.265-3.598.265zM225.104 16.265c-3.084 0-4.176-2.316-4.24-2.382-.193-.331-.064-.794.257-.927.321-.198.771-.066.899.265.065.066.9 1.654 3.02 1.654 2.441 0 3.083-1.456 3.212-2.647.064-1.191-.643-2.184-1.928-2.58-.192-.067-.449-.133-.642-.2-1.221-.396-2.634-.793-3.597-1.72-.707-.728-1.028-1.853-.836-2.978.193-1.191 1.478-2.978 4.048-3.044 2.055-.066 3.212 1.125 3.34 1.257.321.265.386.662.129.993-.257.33-.643.397-.964.132-.064-.066-.899-.992-2.377-.992-1.028 0-2.505.529-2.891 1.919-.192.728.129 1.39.45 1.654.771.794 1.927 1.06 3.019 1.39.257.066.45.132.707.199 2.056.595 3.083 2.25 2.891 4.036 0 .927-.578 3.971-4.497 3.971zM35.844 0v30.111h29.294V0H35.844zM63.21 28.126H37.771V1.986h25.44v26.14z" />
		<path fill="#fff"
			d="M57.427 7.94H43.55v14.294h13.876V7.94zM0 0v30.111h29.294V0H0zm21.585 22.17H7.709V7.941h13.876V22.17zM70.984 0v30.111h29.294V0H70.984zm9.637 20.25V9.928h10.021V20.25H80.621zm17.73 1.92h-5.782V7.941H78.693V22.17h-5.781V1.985H98.35V22.17zM112.034 23.689c-.771 0-1.349.265-1.799.794-.449.53-.642 1.191-.642 2.118 0 .926.193 1.654.642 2.117.45.53 1.028.729 1.799.729.45 0 1.028-.067 1.606-.265v.728c-.45.198-1.028.264-1.734.264-1.028 0-1.799-.33-2.313-.926-.514-.596-.835-1.522-.835-2.647 0-.728.128-1.39.385-1.92.257-.529.643-.992 1.157-1.257.514-.264 1.092-.463 1.734-.463.707 0 1.349.132 1.863.397l-.321.728a3.342 3.342 0 0 0-1.542-.397zM117.238 30.18c-.771 0-1.349-.264-1.799-.728-.449-.463-.642-1.125-.642-1.985 0-.86.193-1.522.578-2.051.385-.53.964-.729 1.606-.729.642 0 1.156.199 1.542.662.385.463.578.993.578 1.721v.53h-3.533c0 .595.192 1.058.449 1.39.257.33.707.462 1.221.462.578 0 1.092-.132 1.606-.33v.727c-.257.133-.514.199-.771.265s-.514.066-.835.066zm-.257-4.764a1.29 1.29 0 0 0-.964.396c-.257.265-.385.662-.449 1.126h2.698c0-.53-.129-.86-.321-1.125-.257-.265-.514-.397-.964-.397zM123.92 25.545h-1.67v4.566h-.771v-4.566h-1.67v-.662h4.047v.662h.064zM127.129 30.18c-.771 0-1.349-.264-1.799-.728-.45-.463-.642-1.125-.642-1.985 0-.86.192-1.522.578-2.051.385-.53.963-.729 1.606-.729.642 0 1.156.199 1.541.662.386.463.579.993.579 1.721v.53h-3.534c0 .595.193 1.058.45 1.39.257.33.707.462 1.221.462.578 0 1.092-.132 1.606-.33v.727c-.257.133-.514.199-.771.265-.193.066-.514.066-.835.066zm-.193-4.764c-.386 0-.707.132-.964.396-.257.265-.385.662-.449 1.126h2.698c0-.53-.129-.86-.321-1.125a1.29 1.29 0 0 0-.964-.397zM134.518 26.146c0 .33-.065.595-.257.794-.193.198-.45.265-.835.33v.067c.449.066.77.199.963.397.193.199.321.463.321.86 0 .464-.192.86-.514 1.125-.321.265-.835.398-1.541.398h-2.249v-5.295h2.249c1.22 0 1.863.463 1.863 1.324zm-.771.132c0-.264-.064-.463-.257-.53-.193-.132-.45-.132-.9-.132h-1.477v1.456h1.285c.449 0 .835-.066 1.028-.198.257-.133.321-.331.321-.596zm.192 2.25a.699.699 0 0 0-.321-.595c-.192-.133-.578-.199-1.028-.199h-1.413v1.72h1.413c.9 0 1.349-.33 1.349-.926zM140.307 27.463c0 .86-.193 1.522-.643 1.986a2.336 2.336 0 0 1-1.734.728c-.45 0-.835-.133-1.221-.331-.385-.199-.642-.53-.835-.927-.193-.397-.257-.926-.257-1.456 0-.86.193-1.522.643-1.985.385-.463.963-.728 1.734-.728.707 0 1.285.265 1.735.728.321.463.578 1.125.578 1.985zm-3.919 0c0 .662.129 1.192.386 1.522.256.331.642.53 1.156.53.514 0 .899-.199 1.156-.53.257-.33.386-.86.386-1.522 0-.661-.129-1.19-.386-1.522-.257-.33-.642-.53-1.156-.53-.514 0-.9.2-1.156.53-.257.331-.386.86-.386 1.522zM142.419 24.819v3.309l-.064.86v.265l2.762-4.5h.964v5.294h-.707v-4.5l-2.762 4.566h-.964V24.82h.771zm1.414-.662c-.579 0-.964-.132-1.285-.33-.257-.2-.386-.596-.45-1.126h.707c0 .331.128.596.257.728.128.133.385.199.771.199.321 0 .578-.067.706-.199.129-.132.257-.397.257-.662h.707c-.064.53-.193.86-.45 1.125-.193.133-.642.265-1.22.265zM151.095 30.117h-.771v-5.295h4.304v5.295h-.771V25.55h-2.762v4.567zM159.445 30.111l-.128-.728h-.065a2.3 2.3 0 0 1-.77.662c-.257.132-.579.198-.964.198-.514 0-.899-.132-1.221-.397a1.62 1.62 0 0 1-.449-1.125c0-1.059.835-1.588 2.505-1.654h.899v-.331c0-.397-.064-.728-.257-.927-.192-.198-.449-.264-.835-.264-.449 0-.899.132-1.477.397l-.257-.596c.257-.132.514-.265.835-.33.321-.067.578-.133.899-.133.578 0 1.092.132 1.349.397.322.265.45.728.45 1.323v3.508h-.514zm-1.734-.596a1.76 1.76 0 0 0 1.156-.397c.257-.264.385-.662.385-1.125v-.463l-.77.066c-.643 0-1.028.133-1.35.265a.955.955 0 0 0-.385.794c0 .265.064.53.257.662.128.132.385.198.707.198zM164.01 30.177c-.321 0-.643-.067-.9-.199a2.011 2.011 0 0 1-.706-.596h-.065c.065.331.065.596.065.86v2.185h-.771v-7.61h.642l.129.727h.064c.193-.265.45-.53.707-.596.257-.132.578-.198.899-.198.707 0 1.221.265 1.542.728.385.463.578 1.125.578 1.985 0 .86-.193 1.522-.578 1.986-.386.53-.9.728-1.606.728zm-.065-4.765c-.513 0-.899.132-1.156.463-.257.265-.321.794-.385 1.39v.198c0 .728.128 1.258.385 1.589.257.33.643.463 1.156.463.45 0 .771-.199 1.028-.53.257-.397.386-.86.386-1.522 0-.661-.129-1.19-.386-1.522-.257-.33-.578-.53-1.028-.53zM171.006 25.545h-1.67v4.566h-.771v-4.566h-1.67v-.662h4.047v.662h.064zM172.872 24.822v2.184h2.891v-2.184h.771v5.295h-.771v-2.383h-2.891v2.383h-.77v-5.295h.77zM180.32 30.174c-.771 0-1.349-.264-1.799-.727-.449-.464-.642-1.125-.642-1.986 0-.86.193-1.522.578-2.051.386-.53.964-.728 1.606-.728.642 0 1.156.198 1.542.661.385.464.578.993.578 1.721v.53h-3.533c0 .595.193 1.058.449 1.39.257.33.707.462 1.221.462.578 0 1.092-.132 1.606-.33v.728c-.257.132-.514.198-.771.264-.193.066-.514.066-.835.066zm-.193-4.764c-.385 0-.706.132-.963.397-.257.264-.386.661-.45 1.125h2.698c0-.53-.128-.86-.321-1.125a1.288 1.288 0 0 0-.964-.397zm-1.284-1.986c0-.198.064-.264.128-.33a.483.483 0 0 1 .321-.133c.129 0 .193.066.321.132a.51.51 0 0 1 .129.331.51.51 0 0 1-.129.331.481.481 0 0 1-.321.132c-.128 0-.193-.066-.321-.132s-.128-.198-.128-.33zm1.734 0c0-.198.064-.264.128-.33a.486.486 0 0 1 .322-.133c.128 0 .192.066.321.132a.515.515 0 0 1 .128.331.515.515 0 0 1-.128.331.483.483 0 0 1-.321.132c-.129 0-.193-.066-.322-.132a.515.515 0 0 1-.128-.33zM185.978 30.177a2 2 0 0 1-.899-.199 2.023 2.023 0 0 1-.707-.596h-.064c.064.331.064.596.064.86v2.185h-.77v-7.61h.642l.128.727h.065c.192-.265.449-.53.706-.596.257-.132.579-.198.9-.198.706 0 1.22.265 1.542.728.385.463.578 1.125.578 1.985 0 .86-.193 1.522-.578 1.986-.45.53-.964.728-1.607.728zm-.128-4.765c-.514 0-.899.132-1.156.463-.257.265-.322.794-.386 1.39v.198c0 .728.129 1.258.386 1.589.257.33.642.463 1.156.463.45 0 .771-.199 1.028-.53.257-.397.385-.86.385-1.522 0-.661-.128-1.19-.385-1.522-.257-.33-.578-.53-1.028-.53zM194.197 30.097h-.771V23.81h-2.184v-.728h5.139v.728h-2.184v6.287zM199.533 30.097h-.771V23.81h-2.184v-.728h5.139v.728h-2.184v6.287zM210.261 30.097h-.963l-3.148-3.574v3.574h-.771v-7.015h.771v3.375l3.083-3.375h.9l-3.02 3.441 3.148 3.574zM214.884 30.11h-.771v-4.566h-1.542a20.789 20.789 0 0 1-.321 2.713c-.129.662-.321 1.192-.578 1.456-.257.331-.514.464-.9.464-.193 0-.321 0-.385-.067v-.595h.257c.385 0 .642-.397.835-1.191.193-.795.385-1.986.45-3.574h3.019v5.36h-.064zM215.785 24.816h.835l1.092 2.978c.257.662.386 1.191.45 1.456h.064c.065-.132.129-.463.257-.86.129-.397.578-1.588 1.285-3.64h.835l-2.184 6.022c-.193.596-.45.993-.771 1.258a1.591 1.591 0 0 1-1.092.397c-.257 0-.45 0-.707-.066v-.662c.193.066.386.066.579.066.513 0 .899-.33 1.156-.927l.257-.728-2.056-5.294zM221.18 26.938c0-1.125.192-2.051.514-2.713.321-.662.835-1.06 1.541-1.191.9-.199 1.671-.331 2.377-.464l.129.728c-1.092.199-1.863.331-2.313.464-.45.132-.771.33-1.028.727-.257.398-.321.927-.385 1.589h.064c.193-.265.45-.463.771-.662.321-.132.642-.198.964-.198.642 0 1.092.198 1.477.661.321.397.514.993.514 1.72 0 .795-.193 1.457-.642 1.92-.386.463-.964.662-1.735.662-.707 0-1.285-.265-1.67-.86-.386-.53-.578-1.324-.578-2.383zm2.377 2.581c.963 0 1.413-.595 1.413-1.853 0-1.191-.45-1.787-1.285-1.787-.257 0-.45.066-.707.133-.192.132-.449.264-.578.397-.192.198-.321.33-.449.53 0 .86.128 1.455.385 1.918.257.464.707.662 1.221.662zM230.363 30.111l-.128-.728h-.065c-.257.33-.514.53-.771.662-.256.132-.578.198-.963.198-.514 0-.899-.132-1.221-.397a1.62 1.62 0 0 1-.449-1.125c0-1.059.835-1.588 2.505-1.654h.899v-.331c0-.397-.064-.728-.257-.927-.192-.198-.449-.264-.835-.264-.449 0-.899.132-1.477.397l-.257-.596c.257-.132.514-.265.835-.33.321-.067.578-.133.899-.133.578 0 1.092.132 1.349.397.322.265.45.728.45 1.323v3.508h-.514zm-1.734-.596c.514 0 .835-.132 1.156-.397.257-.264.385-.662.385-1.125v-.463l-.771.066c-.642 0-1.027.133-1.349.265a.952.952 0 0 0-.385.794c0 .265.064.53.257.662.128.132.385.198.707.198z" />
	</symbol>
	<symbol id="loupe" viewBox="0 0 21 21">
		<path fill="currentColor"
			d="M9 0c4.968 0 9 4.032 9 9s-4.032 9-9 9-9-4.032-9-9 4.032-9 9-9zm0 16c3.867 0 7-3.133 7-7 0-3.868-3.133-7-7-7-3.868 0-7 3.132-7 7 0 3.867 3.132 7 7 7zm8.485.071l2.829 2.828-1.415 1.415-2.828-2.829 1.414-1.414z" />
	</symbol>
	<symbol id="more" viewBox="0 0 20 20">
		<path fill="#222"
			d="M3.463 2.433A9.961 9.961 0 0 1 10 0c5.523 0 10 4.477 10 10 0 2.136-.67 4.116-1.81 5.74L15 10h3A8 8 0 0 0 4.46 4.228l-.997-1.795zm13.074 15.134A9.961 9.961 0 0 1 10 20C4.477 20 0 15.523 0 10c0-2.136.67-4.116 1.81-5.74L5 10H2a8 8 0 0 0 13.54 5.772l.997 1.795z" />
	</symbol>
	<symbol id="next" viewBox="0 0 13 19">
		<path fill="transparent" stroke="currentColor" stroke-width="3" d="M2 17.094l8-7.795-8-8.205" />
	</symbol>
	<symbol id="phone" viewBox="0 0 18 18">
		<path fill="currentColor"
			d="M14.912 18h-.237c-2.524-.314-5.048-1.178-7.177-2.514a16.552 16.552 0 0 1-4.97-4.948C1.189 8.417.32 5.903.006 3.39A2.437 2.437 0 0 1 2.135.798H4.736c1.183 0 2.13.864 2.366 2.042.08.707.237 1.414.474 2.042.315.864.157 1.807-.474 2.435l-.552.55c.947 1.414 2.13 2.67 3.628 3.613l.553-.55c.63-.628 1.656-.864 2.524-.55.63.236 1.34.393 2.05.472a2.374 2.374 0 0 1 2.05 2.357v2.356c0 .628-.236 1.257-.709 1.65a2.24 2.24 0 0 1-1.735.785zM4.737 2.369H2.371c-.473.078-.789.392-.789.864C1.82 5.51 2.607 7.71 3.87 9.673c1.184 1.807 2.682 3.378 4.496 4.478a14.875 14.875 0 0 0 6.468 2.278h.079a.717.717 0 0 0 .552-.236.712.712 0 0 0 .237-.55v-2.356c0-.393-.316-.707-.71-.786-.789-.078-1.578-.314-2.367-.628a1.1 1.1 0 0 0-.867.157l-1.025 1.021a.841.841 0 0 1-.947.158A12.916 12.916 0 0 1 4.737 8.18c-.079-.314 0-.707.237-.942l1.025-1.021c.237-.236.316-.55.158-.864-.316-.786-.473-1.571-.631-2.357-.08-.314-.395-.628-.789-.628zm9.386 5.42c-.394 0-.71-.236-.789-.629-.236-1.257-1.262-2.2-2.524-2.513a.815.815 0 0 1-.63-.943c.078-.471.473-.707.946-.628 1.893.392 3.392 1.806 3.707 3.691.079.393-.158.864-.631.943 0 .079-.079.079-.079.079zm3.155 0c-.394 0-.71-.315-.789-.707-.315-2.907-2.603-5.185-5.6-5.577a.921.921 0 0 1-.71-.864c.08-.393.474-.707.868-.629 3.707.393 6.546 3.22 6.94 6.912.08.393-.236.786-.709.865z" />
	</symbol>
	<symbol id="plus" viewBox="0 0 17 17">
		<path fill="#C20D19" d="M0 7h17v3H0z" />
		<path fill="#C20D19" d="M10 0v17H7V0z" />
	</symbol>
	<symbol id="policy" viewBox="0 0 18 18">
		<path fill="#222"
			d="M14.166 13.166v1.667a.833.833 0 1 0 1.667 0v-12.5H4.166v9.166H2.5v-10a.833.833 0 0 1 .833-.833h13.333a.833.833 0 0 1 .834.833v13.334a2.5 2.5 0 0 1-2.5 2.5H3.333a2.5 2.5 0 0 1-2.5-2.5v-1.667h13.333z" />
	</symbol>
	<symbol id="prev" viewBox="0 0 13 19">
		<path fill="transparent" stroke="currentColor" stroke-width="3" d="M11 17.094L3 9.299l8-8.205" />
	</symbol>
	<symbol id="review" viewBox="0 0 18 18">
		<path fill="#C20D19"
			d="M9.834 15.613v1.667H8.167v-1.667H1.5a.833.833 0 0 1-.833-.833V1.447A.833.833 0 0 1 1.5.613h5A3.325 3.325 0 0 1 9 1.742 3.325 3.325 0 0 1 11.5.613h5a.833.833 0 0 1 .834.834V14.78a.833.833 0 0 1-.834.833H9.834zm5.833-1.666V2.28H11.5a1.667 1.667 0 0 0-1.666 1.667v10h5.833zm-7.5 0v-10A1.667 1.667 0 0 0 6.5 2.28H2.334v11.667h5.833z" />
	</symbol>
	<symbol id="share-fb" viewBox="0 0 11 20">
		<path fill="#4461AE"
			d="M7 11.5h2.5l1-4H7v-2c0-1.03 0-2 2-2h1.5V.14C10.174.097 8.943 0 7.643 0 4.928 0 3 1.657 3 4.7v2.8H0v4h3V20h4v-8.5z" />
	</symbol>
	<symbol id="share-mail" viewBox="0 0 19 15">
		<path fill="#000"
			d="M18.333 14.172a.833.833 0 0 1-.826.828H2.493a.827.827 0 0 1-.826-.828v-.839h15v-9.75l-6.667 6-8.333-7.5V.833A.833.833 0 0 1 2.5 0h15a.833.833 0 0 1 .833.833v13.34zM3.695 1.667L10 7.342l6.305-5.675H3.695zM0 10h6.667v1.667H0V10zm0-4.167h4.167V7.5H0V5.833z" />
	</symbol>
	<symbol id="share-tw" viewBox="0 0 22 18">
		<path fill="#29AEE8"
			d="M21.16 2.657a8.383 8.383 0 0 1-2.402.658A4.195 4.195 0 0 0 20.598 1c-.82.488-1.719.83-2.656 1.015a4.182 4.182 0 0 0-7.126 3.814 11.874 11.874 0 0 1-8.62-4.37 4.168 4.168 0 0 0-.566 2.103c0 1.45.738 2.73 1.86 3.48a4.168 4.168 0 0 1-1.894-.522v.052a4.185 4.185 0 0 0 3.355 4.1 4.21 4.21 0 0 1-1.89.073 4.185 4.185 0 0 0 3.907 2.905 8.395 8.395 0 0 1-6.19 1.732 11.83 11.83 0 0 0 6.41 1.88c7.692 0 11.9-6.373 11.9-11.9 0-.18-.006-.362-.014-.54a8.495 8.495 0 0 0 2.087-2.165v-.001z" />
	</symbol>
	<symbol id="share-vk" viewBox="0 0 22 13">
		<path fill="#5C7EA7" stroke="#5C7EA7" stroke-width=".5"
			d="M16.163 1.476l-.001.004v.001l-.003.005-.009.02-.036.081a19.497 19.497 0 0 1-.677 1.332c-.459.823-1.102 1.835-1.851 2.622-.507.48-.653.548-.81.55a.087.087 0 0 1-.026-.025c-.026-.036-.067-.123-.067-.304V1.738c0-.271-.037-.53-.189-.72-.164-.205-.409-.268-.673-.268H8.46c-.457 0-.8.34-.8.713 0 .197.079.347.168.47a2.848 2.848 0 0 0 .149.185c.043.052.086.102.129.157.175.226.366.546.41 1.165v2.973c0 .328-.035.456-.062.501l-.005.008c.001-.001.002-.001 0 0a.237.237 0 0 1-.081.008c-.022 0-.08-.012-.183-.076a2.111 2.111 0 0 1-.35-.29c-.267-.265-.578-.656-.904-1.144-.652-.974-1.345-2.309-1.858-3.737l-.003-.009c-.11-.272-.23-.514-.425-.68-.206-.178-.46-.244-.77-.244h-2.14c-.337 0-.599.075-.773.249-.176.175-.211.4-.211.58 0 .17.053.465.163.85.113.391.29.895.55 1.49.52 1.19 1.374 2.752 2.715 4.525 1.81 2.454 4.371 3.806 6.726 3.806.68 0 1.129-.069 1.408-.245a.74.74 0 0 0 .306-.367c.054-.14.065-.286.065-.42V9.395c0-.139.007-.236.02-.304.014-.068.03-.092.037-.099.005-.007.036-.042.258-.042.22 0 .694.085 1.954 1.236a23.375 23.375 0 0 1 1.014 1.022c.178.188.335.354.478.49.18.17.352.31.544.407.197.098.403.145.641.145h2.14c.333 0 .65-.077.85-.297.213-.234.229-.554.122-.884l-.003-.006c-.113-.322-.356-.696-.67-1.1a21.19 21.19 0 0 0-1.184-1.36 13.03 13.03 0 0 0-.836-.822l-.021-.02c-.288-.267-.503-.47-.59-.594l-.006-.008-.006-.007c-.146-.178-.154-.255-.15-.29.005-.057.04-.129.163-.307l.013-.02.013-.017.083-.114c.072-.099.175-.24.3-.415.25-.347.587-.822.931-1.334.345-.512.7-1.063.986-1.564.278-.486.506-.95.583-1.288.074-.24.098-.522-.07-.746-.17-.227-.468-.307-.814-.307h-2.14c-.319 0-.57.08-.767.223a1.23 1.23 0 0 0-.393.503zm-3.385 4.616z" />
	</symbol>
	<symbol id="tw" viewBox="0 0 30 30">
		<path fill="transparent" stroke="currentColor" d="M.5.5h29v29H.5z" />
		<path fill="transparent" stroke="currentColor" d="M.5.5h29v29H.5z" />
		<path fill="currentColor"
			d="M22.528 10.3a6.212 6.212 0 0 1-1.78.487 3.108 3.108 0 0 0 1.364-1.715 6.19 6.19 0 0 1-1.967.752 3.098 3.098 0 0 0-5.279 2.825 8.794 8.794 0 0 1-6.385-3.236 3.097 3.097 0 0 0 .959 4.136 3.088 3.088 0 0 1-1.404-.388v.039a3.1 3.1 0 0 0 2.486 3.038 3.118 3.118 0 0 1-1.4.053 3.1 3.1 0 0 0 2.894 2.152 6.219 6.219 0 0 1-4.586 1.283 8.763 8.763 0 0 0 4.748 1.392c5.698 0 8.815-4.72 8.815-8.814 0-.134-.004-.268-.01-.4a6.292 6.292 0 0 0 1.546-1.604z" />
		<path fill="currentColor"
			d="M22.528 10.3a6.212 6.212 0 0 1-1.78.487 3.108 3.108 0 0 0 1.364-1.715 6.19 6.19 0 0 1-1.967.752 3.098 3.098 0 0 0-5.279 2.825 8.794 8.794 0 0 1-6.385-3.236 3.097 3.097 0 0 0 .959 4.136 3.088 3.088 0 0 1-1.404-.388v.039a3.1 3.1 0 0 0 2.486 3.038 3.118 3.118 0 0 1-1.4.053 3.1 3.1 0 0 0 2.894 2.152 6.219 6.219 0 0 1-4.586 1.283 8.763 8.763 0 0 0 4.748 1.392c5.698 0 8.815-4.72 8.815-8.814 0-.134-.004-.268-.01-.4a6.292 6.292 0 0 0 1.546-1.604z" />
	</symbol>
	<symbol id="close" viewBox="0 0 24 24">
		<g stroke-width="3" stroke="#000" transform="translate(1.000000, 1.000000)">
			<path d="M0,11 L22,11"></path>
			<path d="M11,0 L11,22"></path>
		</g>
	</symbol>
	<symbol id="close-light" viewBox="0 0 24 24">
		<g stroke-width="3" stroke="#FFF" transform="translate(1.000000, 1.000000)">
			<path d="M0,11 L22,11"></path>
			<path d="M11,0 L11,22"></path>
		</g>
	</symbol>
</svg>