<?xml version="1.0" encoding="UTF-8"?>
<!DOCTYPE svg PUBLIC "-//W3C//DTD SVG 1.1//EN" "http://www.w3.org/Graphics/SVG/1.1/DTD/svg11.dtd">
<svg xmlns="http://www.w3.org/2000/svg">
	<symbol id="arrow-next" viewBox="0 0 8 12">
		<path fill="transparent" stroke="currentColor" stroke-width="2" d="M1 11l5-4.872L1 1" />
	</symbol>
	<symbol id="arrow-prev" viewBox="0 0 7 11">
		<path fill="transparent" stroke="currentColor" stroke-width="1.5" d="M6 10L2 5.615 6 1" />
	</symbol>
	<symbol id="arrow-up" viewBox="0 0 24 12">
		<path fill="transparent" stroke="#222" stroke-width="3" d="M23 10L12.282 2 1 10" />
	</symbol>
	<symbol id="arrow" viewBox="0 0 9 5">
		<path fill="transparent" stroke="currentColor" stroke-linecap="round" stroke-linejoin="round"
			stroke-width="1.75" d="M1 1l3.41 3L8 1" />
	</symbol>
	<symbol id="arrow_down" viewBox="0 0 20 13">
		<path d="M2 2l7.795 8L18 2" />
	</symbol>
	<symbol id="call" viewBox="0 0 21 21">
		<path fill="currentColor"
			d="M.946 7.315C.424 7.14.419 6.86.956 6.68L20.043.319c.529-.176.832.12.684.638l-5.454 19.086c-.15.529-.455.547-.68.045L11 12l6-8-8 6L.946 7.315z" />
	</symbol>
	<symbol id="check" viewBox="0 0 42 42">
		<path fill="#C20D19" stroke="#fff" stroke-linejoin="round" stroke-width="6"
			d="M27.81 12.86L16.005 24.665 14.19 22.85a4.447 4.447 0 0 0-6.288 6.288l4.959 4.96a4.447 4.447 0 0 0 6.288 0l14.95-14.95a4.447 4.447 0 0 0-6.29-6.288z" />
	</symbol>
	<symbol id="close" viewBox="0 0 24 24">
		<g stroke-width="3" transform="translate(1.000000, 1.000000)">
			<path d="M0,11 L22,11"></path>
			<path d="M11,0 L11,22"></path>
		</g>
	</symbol>
	<symbol id="doc" viewBox="0 0 24 26">
		<path fill="#C20D19"
			d="M23.25 8.094v16.241a1.248 1.248 0 0 1-1.241 1.259H1.99a1.24 1.24 0 0 1-1.241-1.24V1.834c0-.671.561-1.24 1.252-1.24h13.744l7.504 7.5zm-2.5 1.25H14.5v-6.25H3.25v20h17.5V9.344zM7 6.844h3.75v2.5H7v-2.5zm0 5h10v2.5H7v-2.5zm0 5h10v2.5H7v-2.5z" />
	</symbol>
	<symbol id="double-next" viewBox="0 0 13 12">
		<path fill="transparent" stroke="#C20D19" stroke-width="1.5" d="M1 11l5-4.872L1 1M6 11l5-4.872L6 1" />
	</symbol>
	<symbol id="double-prev" viewBox="0 0 13 12">
		<path fill="transparent" stroke="#C20D19" stroke-width="1.5" d="M12 11L7 6.128 12 1M7 11L2 6.128 7 1" />
	</symbol>
	<symbol id="logo" viewBox="0 0 18700 4000">
		<g stroke="#C20D19" fill="#C20D19">
			<rect class="fil0" x="457" y="41" width="376" height="3918" rx="22" ry="21" />
			<path class="fil0" d="M55 790l0 -333c0,-12 10,-22 22,-22l254 0 0 377 -254 0c-12,0 -22,-10 -22,-22z" />
			<rect class="fil0" transform="matrix(1.31844E-14 -1.49672 0.469087 3.73524E-14 959.377 811.508)" width="251"
				height="2778" />
			<rect class="fil0" transform="matrix(1.31844E-14 -1.49672 0.469087 3.73524E-14 959.377 3564.4)" width="251"
				height="2778" />
			<rect class="fil0" transform="matrix(1.31844E-14 -1.49672 0.469087 3.73524E-14 959.377 2646.77)" width="251"
				height="2778" />
			<rect class="fil0" transform="matrix(1.31844E-14 -1.49672 0.469087 3.73524E-14 959.377 1729.14)" width="251"
				height="2778" />
			<path class="fil0" d="M55 2625l0 -333c0,-12 10,-21 22,-21l254 0 0 376 -254 0c-12,0 -22,-10 -22,-22z" />
			<path class="fil0" d="M2891 812l0 -377 254 0c12,0 22,10 22,22l0 333c0,12 -10,22 -22,22l-254 0z" />
			<path class="fil0" d="M2891 2647l0 -376 254 0c12,0 22,9 22,21l0 333c0,12 -10,22 -22,22l-254 0z" />
			<rect class="fil0" x="2389" y="41" width="376" height="3918" rx="22" ry="21" />
			<path class="fil0" d="M55 1707l0 -332c0,-12 10,-22 22,-22l254 0 0 376 -254 0c-12,0 -22,-10 -22,-22z" />
			<path class="fil0" d="M55 3543l0 -333c0,-12 10,-22 22,-22l254 0 0 376 -254 0c-12,0 -22,-9 -22,-21z" />
			<path class="fil0" d="M2891 1729l0 -376 254 0c12,0 22,10 22,22l0 332c0,12 -10,22 -22,22l-254 0z" />
			<path class="fil0" d="M2891 3564l0 -376 254 0c12,0 22,10 22,22l0 333c0,12 -10,21 -22,21l-254 0z" />
			<path class="fil1"
				d="M4613 1870c0,193 84,351 386,351l39 0c96,0 188,-13 275,-34l0 -175c-98,28 -208,40 -280,40 -224,0 -224,-88 -224,-210 0,-122 0,-209 224,-209 72,0 182,10 280,39l0 -174c-87,-22 -179,-35 -275,-35l-39 0c-302,0 -386,158 -386,351l0 56z" />
			<polygon id="1" class="fil1"
				points="5416,2157 5416,2199 5605,2199 5792,1976 5980,2199 6167,2199 6167,2157 5904,1842 6167,1527 6167,1484 5980,1484 5792,1708 5605,1484 5416,1484 5416,1527 5680,1842 " />
			<polygon id="2" class="fil1"
				points="6959,1484 6274,1484 6274,2199 6959,2199 6959,2029 6466,2029 6466,1933 6852,1933 6852,1762 6466,1762 6466,1655 6959,1655 " />
			<polygon id="3" class="fil1"
				points="7577,2053 7777,1772 7777,2199 7970,2199 7970,1484 7777,1484 7528,1850 7278,1484 7086,1484 7086,2199 7278,2199 7278,1772 7479,2053 " />
			<path id="4" class="fil1"
				d="M8239 2199l61 -138 359 0 62 138 173 0 0 -42 -318 -673 -192 0 -318 673 0 42 173 0zm132 -298l109 -245 109 245 -218 0z" />
			<polygon id="5" class="fil1" points="8974,1815 8974,1965 9349,1965 9349,1815 " />
			<polygon id="6" class="fil1"
				points="9488,1484 9488,2199 9680,2199 9680,1655 10032,1655 10032,2199 10225,2199 10225,1484 " />
			<path id="7" class="fil1"
				d="M10363 1870c0,193 87,351 398,351l38 0c311,0 397,-158 397,-351l0 -56c0,-193 -86,-351 -397,-351l-38 0c-311,0 -398,158 -398,351l0 56zm193 -28c0,-108 0,-207 224,-207 224,0 224,99 224,207 0,109 0,208 -224,208 -224,0 -224,-99 -224,-208z" />
			<polygon id="8" class="fil1" points="11977,1484 11335,1484 11335,2199 11527,2199 11527,1655 11977,1655 " />
			<path id="9" class="fil1"
				d="M12804 1719c0,-141 -66,-256 -305,-256l-30 0c-129,0 -269,7 -391,21l0 715 192 0 0 -192c70,11 143,11 220,11l30 0c222,0 284,-115 284,-256l0 -43zm-344 128c-66,0 -124,-1 -190,-9l0 -195c71,-6 153,-9 198,-9 144,0 144,43 144,106 0,62 0,107 -152,107z" />
			<path id="10" class="fil1"
				d="M13673 1527l0 -43 -181 0 -195 345 -221 -345 -192 0 0 43 321 466c-16,37 -33,54 -95,54 -24,0 -65,-3 -92,-10l0 173c28,8 69,11 100,11 155,0 206,-86 270,-208l285 -486z" />
			<path id="11" class="fil1"
				d="M14079 2221c273,0 348,-91 348,-203l0 -21c0,-68 -43,-128 -177,-156 118,-27 156,-85 156,-154l0 -21c0,-111 -71,-203 -327,-203l-25 0c-86,0 -175,13 -253,35l0 176c88,-25 164,-40 260,-40 168,0 174,31 174,64 0,36 0,64 -163,64l-83 0 0 171 83 0c184,0 184,23 184,53 0,33 -7,64 -193,64 -98,0 -182,-13 -284,-39l0 176c86,22 178,34 278,34l22 0z" />
			<polygon id="12" class="fil1"
				points="14581,1484 14581,2199 14773,2199 14773,1933 14904,1933 15128,2199 15316,2199 15316,2157 15053,1842 15316,1527 15316,1484 15128,1484 14896,1762 14773,1762 14773,1484 " />
			<polygon id="13" class="fil1"
				points="15615,1943 15615,1484 15423,1484 15423,2199 15615,2199 15990,1740 15990,2199 16182,2199 16182,1484 15990,1484 " />
			<path id="14" class="fil1"
				d="M16332 2119c0,56 24,102 113,102l8 0c89,0 113,-46 113,-102l0 -12c0,-56 -24,-102 -113,-102l-8 0c-89,0 -113,46 -113,102l0 12z" />
			<path id="15" class="fil1"
				d="M17442 1719c0,-141 -66,-256 -305,-256l-30 0c-130,0 -269,7 -391,21l0 715 192 0 0 -192c69,11 143,11 220,11l30 0c222,0 284,-115 284,-256l0 -43zm-344 128c-66,0 -124,-1 -190,-9l0 -195c71,-6 153,-9 198,-9 144,0 144,43 144,106 0,62 0,107 -152,107z" />
			<path id="16" class="fil1"
				d="M17965 1399l0 74 -19 0c-302,0 -387,122 -387,271l0 55c0,149 85,270 387,270l19 0 0 130 192 0 0 -130 19 0c303,0 387,-120 387,-270l0 -55c0,-149 -84,-271 -387,-271l-19 0 0 -74 -192 0zm-213 372c0,-66 0,-126 213,-126l0 253c-213,0 -213,-59 -213,-127zm619 0c0,68 0,127 -214,127l0 -253c214,0 214,60 214,126z" />
			<rect class="fil0" x="4624" y="2956" width="13935" height="267" rx="176" ry="105" />
		</g>
	</symbol>
	<symbol id="loupe" viewBox="0 0 21 21">
		<path fill="currentColor"
			d="M9 0c4.968 0 9 4.032 9 9s-4.032 9-9 9-9-4.032-9-9 4.032-9 9-9zm0 16c3.867 0 7-3.133 7-7 0-3.868-3.133-7-7-7-3.868 0-7 3.132-7 7 0 3.867 3.132 7 7 7zm8.485.071l2.829 2.828-1.415 1.415-2.828-2.829 1.414-1.414z" />
	</symbol>
	<symbol id="mail" viewBox="0 0 19 15">
		<path fill="#000"
			d="M18.333 14.172a.833.833 0 0 1-.826.828H2.493a.827.827 0 0 1-.826-.828v-.839h15v-9.75l-6.667 6-8.333-7.5V.833A.833.833 0 0 1 2.5 0h15a.833.833 0 0 1 .833.833v13.34zM3.695 1.667L10 7.342l6.305-5.675H3.695zM0 10h6.667v1.667H0V10zm0-4.167h4.167V7.5H0V5.833z" />
	</symbol>
	<symbol id="more" viewBox="0 0 20 20">
		<path fill="#222"
			d="M3.463 2.433A9.961 9.961 0 0 1 10 0c5.523 0 10 4.477 10 10 0 2.136-.67 4.116-1.81 5.74L15 10h3A8 8 0 0 0 4.46 4.228l-.997-1.795zm13.074 15.134A9.961 9.961 0 0 1 10 20C4.477 20 0 15.523 0 10c0-2.136.67-4.116 1.81-5.74L5 10H2a8 8 0 0 0 13.54 5.772l.997 1.795z" />
	</symbol>
	<symbol id="next" viewBox="0 0 13 19">
		<path fill="transparent" stroke="currentColor" stroke-width="3" d="M2 17.094l8-7.795-8-8.205" />
	</symbol>
	<symbol id="phone" viewBox="0 0 18 18">
		<path fill="currentColor"
			d="M14.912 18h-.237c-2.524-.314-5.048-1.178-7.177-2.514a16.552 16.552 0 0 1-4.97-4.948C1.189 8.417.32 5.903.006 3.39A2.437 2.437 0 0 1 2.135.798H4.736c1.183 0 2.13.864 2.366 2.042.08.707.237 1.414.474 2.042.315.864.157 1.807-.474 2.435l-.552.55c.947 1.414 2.13 2.67 3.628 3.613l.553-.55c.63-.628 1.656-.864 2.524-.55.63.236 1.34.393 2.05.472a2.374 2.374 0 0 1 2.05 2.357v2.356c0 .628-.236 1.257-.709 1.65a2.24 2.24 0 0 1-1.735.785zM4.737 2.369H2.371c-.473.078-.789.392-.789.864C1.82 5.51 2.607 7.71 3.87 9.673c1.184 1.807 2.682 3.378 4.496 4.478a14.875 14.875 0 0 0 6.468 2.278h.079a.717.717 0 0 0 .552-.236.712.712 0 0 0 .237-.55v-2.356c0-.393-.316-.707-.71-.786-.789-.078-1.578-.314-2.367-.628a1.1 1.1 0 0 0-.867.157l-1.025 1.021a.841.841 0 0 1-.947.158A12.916 12.916 0 0 1 4.737 8.18c-.079-.314 0-.707.237-.942l1.025-1.021c.237-.236.316-.55.158-.864-.316-.786-.473-1.571-.631-2.357-.08-.314-.395-.628-.789-.628zm9.386 5.42c-.394 0-.71-.236-.789-.629-.236-1.257-1.262-2.2-2.524-2.513a.815.815 0 0 1-.63-.943c.078-.471.473-.707.946-.628 1.893.392 3.392 1.806 3.707 3.691.079.393-.158.864-.631.943 0 .079-.079.079-.079.079zm3.155 0c-.394 0-.71-.315-.789-.707-.315-2.907-2.603-5.185-5.6-5.577a.921.921 0 0 1-.71-.864c.08-.393.474-.707.868-.629 3.707.393 6.546 3.22 6.94 6.912.08.393-.236.786-.709.865z" />
	</symbol>
	<symbol id="plus" viewBox="0 0 17 17">
		<path fill="#C20D19" d="M0 7h17v3H0z" />
		<path fill="#C20D19" d="M10 0v17H7V0z" />
	</symbol>
	<symbol id="policy" viewBox="0 0 18 18">
		<path fill="#222"
			d="M14.166 13.166v1.667a.833.833 0 1 0 1.667 0v-12.5H4.166v9.166H2.5v-10a.833.833 0 0 1 .833-.833h13.333a.833.833 0 0 1 .834.833v13.334a2.5 2.5 0 0 1-2.5 2.5H3.333a2.5 2.5 0 0 1-2.5-2.5v-1.667h13.333z" />
	</symbol>
	<symbol id="prev" viewBox="0 0 13 19">
		<path fill="transparent" stroke="currentColor" stroke-width="3" d="M11 17.094L3 9.299l8-8.205" />
	</symbol>
	<symbol id="review" viewBox="0 0 18 18">
		<path fill="#C20D19"
			d="M9.834 15.613v1.667H8.167v-1.667H1.5a.833.833 0 0 1-.833-.833V1.447A.833.833 0 0 1 1.5.613h5A3.325 3.325 0 0 1 9 1.742 3.325 3.325 0 0 1 11.5.613h5a.833.833 0 0 1 .834.834V14.78a.833.833 0 0 1-.834.833H9.834zm5.833-1.666V2.28H11.5a1.667 1.667 0 0 0-1.666 1.667v10h5.833zm-7.5 0v-10A1.667 1.667 0 0 0 6.5 2.28H2.334v11.667h5.833z" />
	</symbol>

	<symbol id="telegram" viewBox="0 0 48 48" fill="none">
		<g clip-path="url(#clip0_122_1087)">
			<path
				d="M24 48C37.2548 48 48 37.2548 48 24C48 10.7452 37.2548 0 24 0C10.7452 0 0 10.7452 0 24C0 37.2548 10.7452 48 24 48Z"
				fill="#039BE5" />
			<path
				d="M10.9815 23.48L34.1216 14.558C35.1956 14.17 36.1336 14.82 35.7856 16.444L35.7875 16.442L31.8475 35.004C31.5555 36.32 30.7736 36.64 29.6796 36.02L23.6796 31.598L20.7855 34.386C20.4655 34.706 20.1955 34.976 19.5755 34.976L20.0015 28.87L31.1215 18.824C31.6056 18.398 31.0135 18.158 30.3755 18.582L16.6336 27.234L10.7095 25.386C9.42355 24.978 9.39555 24.1 10.9815 23.48Z"
				fill="white" />
		</g>
		<defs>
			<clipPath id="clip0_122_1087">
				<rect width="48" height="48" fill="white" />
			</clipPath>
		</defs>
	</symbol>

	<symbol id="whatsapp" viewBox="0 0 48 48" >
		<g clip-path="url(#clip0_122_1097)">
			<path
				d="M23.9871 0.0126382C10.7401 0.015449 0.00357906 10.7566 0.00638989 24.0036C0.00732684 28.5906 1.32364 33.0811 3.79905 36.9428L0.0672914 46.6251C-0.131435 47.1401 0.124914 47.7186 0.639859 47.9174C0.755009 47.9618 0.877281 47.9845 1.00068 47.9844C1.11517 47.9849 1.22882 47.9653 1.33648 47.9263L11.3306 44.3585C22.5751 51.3617 37.3677 47.9234 44.3709 36.6788C51.374 25.4342 47.9357 10.6416 36.6912 3.63852C32.8795 1.26449 28.4778 0.00823454 23.9871 0.0126382Z"
				fill="#55CD6C" />
			<path
				d="M35.422 28.098C35.422 28.098 32.9735 26.8987 31.4404 26.0992C29.7054 25.2057 27.6666 26.8787 26.7072 27.8302C25.214 27.2566 23.8502 26.3908 22.6956 25.2837C21.5882 24.1292 20.7225 22.7654 20.1491 21.272C21.1005 20.3106 22.7695 18.2738 21.8801 16.5389C21.0905 15.0038 19.8813 12.5572 19.8813 12.5552C19.7116 12.2185 19.3669 12.0059 18.9898 12.0055H16.991C14.0801 12.5083 11.9636 15.0482 11.994 18.002C11.994 21.1401 15.7497 27.1686 18.2823 29.703C20.8148 32.2375 26.8433 35.9913 29.9833 35.9913C32.9371 36.0217 35.477 33.9051 35.9798 30.9943V28.9955C35.9801 28.6144 35.7638 28.2663 35.422 28.098Z"
				fill="#FAFAFA" />
		</g>
		<defs>
			<clipPath id="clip0_122_1097">
				<rect width="48" height="48" fill="white" />
			</clipPath>
		</defs>
	</symbol>

</svg>