<?xml version="1.0" standalone="no"?>
<!DOCTYPE svg PUBLIC "-//W3C//DTD SVG 20010904//EN"
 "http://www.w3.org/TR/2001/REC-SVG-20010904/DTD/svg10.dtd">
<svg version="1.0" xmlns="http://www.w3.org/2000/svg"
 width="90.000000pt" height="90.000000pt" viewBox="0 0 90.000000 90.000000"
 preserveAspectRatio="xMidYMid meet">
<metadata>
Created by potrace 1.14, written by Peter Selinger 2001-2017
</metadata>
<g transform="translate(0.000000,90.000000) scale(0.100000,-0.100000)"
fill="#000000" stroke="none">
<path d="M233 853 c-10 -4 -13 -93 -13 -399 l0 -394 39 0 38 0 0 393 c0 274
-3 394 -11 399 -12 9 -35 9 -53 1z"/>
<path d="M619 827 c-3 -105 -3 -735 0 -749 2 -13 13 -18 37 -18 33 0 34 1 35
43 0 23 0 186 0 362 -1 176 -1 336 -1 356 0 34 -2 36 -35 37 -33 1 -35 -1 -36
-31z"/>
<path d="M145 780 c-2 -3 -5 -21 -7 -40 -3 -33 -1 -35 27 -38 30 -3 31 -2 29
35 -1 21 -2 41 -3 45 -1 8 -41 6 -46 -2z"/>
<path d="M329 786 c-1 -1 -3 -20 -4 -43 l-2 -43 53 -1 c30 0 77 0 104 0 119 0
110 -4 110 44 l0 42 -130 1 c-72 0 -131 0 -131 0z"/>
<path d="M726 783 c-3 -3 -6 -23 -6 -44 0 -31 4 -37 25 -41 31 -6 33 -3 31 46
-1 31 -5 40 -22 42 -12 2 -24 1 -28 -3z"/>
<path d="M139 580 c-1 -11 -2 -30 -2 -42 -1 -19 4 -24 29 -26 29 -3 30 -2 28
35 -1 21 -2 41 -3 46 -1 4 -12 7 -26 7 -18 0 -25 -6 -26 -20z"/>
<path d="M326 591 c-2 -3 -3 -22 -2 -41 l1 -35 133 -3 132 -3 0 44 0 45 -130
0 c-72 0 -132 -3 -134 -7z"/>
<path d="M726 592 c-10 -16 -14 -59 -6 -71 4 -7 18 -11 31 -9 21 3 24 8 24 43
0 33 -4 41 -22 43 -11 2 -24 -1 -27 -6z"/>
<path d="M145 404 c-6 -2 -9 -22 -7 -44 4 -36 7 -40 31 -40 25 0 27 3 25 38
-1 20 -2 40 -3 45 -1 7 -29 8 -46 1z"/>
<path d="M329 408 c-1 -2 -3 -22 -4 -45 l-3 -43 134 0 134 0 0 45 0 45 -130 0
c-72 0 -131 -1 -131 -2z"/>
<path d="M718 388 c-7 -47 3 -68 31 -68 25 0 27 3 26 43 0 38 -3 42 -27 45
-21 3 -27 -1 -30 -20z"/>
<path d="M139 211 c-1 -6 -1 -22 -1 -36 0 -43 1 -45 26 -45 27 0 33 11 32 55
-1 25 -6 31 -28 33 -16 2 -28 -1 -29 -7z"/>
<path d="M329 218 c-1 -2 -3 -22 -4 -45 l-3 -43 134 0 134 0 0 45 0 45 -130 0
c-72 0 -131 -1 -131 -2z"/>
<path d="M720 176 c0 -44 1 -46 29 -46 29 0 30 2 28 43 -2 38 -5 42 -29 45
-27 3 -28 2 -28 -42z"/>
</g>
</svg>
